<?xml version="1.0" standalone="no"?>
<!DOCTYPE svg PUBLIC "-//W3C//DTD SVG 20010904//EN"
 "http://www.w3.org/TR/2001/REC-SVG-20010904/DTD/svg10.dtd">
<svg version="1.0" xmlns="http://www.w3.org/2000/svg"
 width="260.000000pt" height="260.000000pt" viewBox="0 0 260.000000 260.000000"
 preserveAspectRatio="xMidYMid meet">
<metadata>
Created by potrace 1.11, written by Peter Selinger 2001-2013
</metadata>
<g transform="translate(0.000000,260.000000) scale(0.100000,-0.100000)"
fill="#000000" stroke="none">
<path d="M1371 2065 c-210 -55 -394 -203 -491 -398 l-40 -79 -123 -1 c-120 -2
-125 -3 -198 -39 -183 -90 -278 -238 -283 -437 l-2 -94 -40 -14 c-87 -30 -143
-117 -144 -221 0 -77 22 -125 82 -176 l42 -37 272 272 272 272 -5 38 c-5 33
-1 42 25 69 42 42 101 42 143 1 17 -18 29 -40 29 -56 0 -64 -58 -114 -118
-102 -26 5 -48 -14 -280 -246 -139 -139 -252 -255 -252 -260 0 -4 100 -7 223
-7 l222 0 377 375 377 375 -10 33 c-35 124 32 247 157 283 49 14 66 15 111 4
189 -42 247 -269 102 -394 -61 -52 -161 -70 -231 -41 -13 5 -92 -68 -332 -306
-174 -172 -316 -316 -316 -321 0 -4 111 -8 248 -8 l247 0 88 88 c65 66 87 94
87 114 0 41 11 59 43 73 36 15 82 3 97 -25 29 -55 -5 -110 -68 -110 -33 0 -45
-8 -100 -63 -34 -34 -62 -66 -62 -70 0 -4 192 -7 428 -7 395 0 430 2 467 19
85 40 135 120 135 218 -1 131 -100 233 -229 233 -27 0 -32 3 -26 17 55 144 66
338 26 478 -66 236 -239 432 -459 521 -148 59 -331 70 -491 29z m453 -328
c290 -133 295 -533 9 -673 -66 -33 -190 -44 -262 -24 l-44 12 22 21 c19 19 33
22 109 22 75 0 95 4 144 28 111 55 173 153 173 277 0 124 -62 222 -173 277
-47 23 -70 28 -132 27 -125 0 -223 -61 -277 -172 -24 -49 -28 -69 -28 -143 0
-72 -3 -91 -19 -108 -25 -28 -33 -19 -45 57 -12 74 0 166 30 224 44 85 136
163 232 194 65 22 192 12 261 -19z m-945 -435 c19 -9 48 -34 64 -54 56 -70 33
-178 -47 -227 -35 -22 -136 -30 -136 -11 0 6 20 10 44 10 83 0 153 75 141 153
-11 77 -59 117 -140 117 -38 0 -52 -6 -82 -34 -33 -30 -38 -41 -43 -90 -6 -72
-25 -73 -25 -1 1 64 22 98 81 132 47 27 97 29 143 5z m871 -437 c79 -41 79
-162 0 -209 -30 -17 -100 -22 -100 -7 0 5 15 9 34 9 45 0 72 16 92 54 45 87
-40 182 -129 144 -40 -16 -67 -59 -67 -106 0 -18 -4 -29 -10 -25 -29 18 6 116
49 140 34 19 95 19 131 0z"/>
</g>
</svg>
