<?xml version="1.0" encoding="utf-8"?>
<!-- Generator: Adobe Illustrator 24.1.1, SVG Export Plug-In . SVG Version: 6.00 Build 0)  -->
<svg version="1.1" id="Layer_1" xmlns="http://www.w3.org/2000/svg" xmlns:xlink="http://www.w3.org/1999/xlink" x="0px" y="0px"
	 viewBox="0 0 189.7 91.6" style="enable-background:new 0 0 189.7 91.6;" xml:space="preserve">
<style type="text/css">
	.st0{fill:#FF0000;}
</style>
<path class="st0" d="M0,0h45v91.6H0V0z M144.7,0h45v91.6h-45V0z M88.6,19.1L95,6l6.4,12.6c0.8,1.3,1.4,1.2,2.7,0.6l5.5-2.7L106,34.1
	c-0.7,3.5,1.2,4.5,3.4,2.1l7.8-8.4l2.1,4.7c0.7,1.4,1.7,1.2,3.1,1l8.1-1.7L127.8,42v0.2c-0.3,1.3-1,2.4,0.5,3.1l2.9,1.4l-16.7,14.1
	c-1.7,1.7-1.1,2.3-0.5,4.2l1.5,4.7L100,67c-1.9-0.5-3.2-0.5-3.3,1.1l0.6,17.8h-4.7l0.6-17.8c0-1.7-1.3-1.7-4.5-1.1l-14.4,2.8
	l1.9-4.7c0.6-1.8,0.8-3-0.6-4.2L58.7,47l3.1-1.9c0.9-0.7,1-1.4,0.5-3l-3.2-10.3l8.2,1.7c2.3,0.5,2.9,0,3.5-1.2l2.3-4.7l8.1,9
	c1.4,1.7,3.5,0.6,2.8-1.9l-3.9-19.1l6,3.5c1,0.6,2,0.7,2.6-0.4"/>
</svg>
