<?xml version="1.0" encoding="utf-8"?>
<!-- Generator: Adobe Illustrator 24.0.1, SVG Export Plug-In . SVG Version: 6.00 Build 0)  -->
<svg version="1.1" xmlns="http://www.w3.org/2000/svg" xmlns:xlink="http://www.w3.org/1999/xlink" x="0px" y="0px"
	 viewBox="0 0 754.8 754.8" style="enable-background:new 0 0 754.8 754.8;" xml:space="preserve">
<style type="text/css">
	.st0{display:none;}
	.st1{display:inline;fill:#FFFFFF;}
	.st2{display:inline;fill:none;stroke:#000000;stroke-width:10;stroke-linecap:round;stroke-miterlimit:10;}
	.st3{display:inline;fill:#FFFFFF;stroke:#000000;stroke-width:10;stroke-linecap:round;stroke-miterlimit:10;}
	.st4{fill:#FFFFFF;}
	.st5{fill:#0A6CBC;}
</style>
<g id="Layer_1" class="st0">
	
		<rect x="112.2" y="112.2" transform="matrix(0.7071 0.7071 -0.7071 0.7071 377.3789 -156.3155)" class="st1" width="530.4" height="530.4"/>
	<circle class="st2" cx="377.4" cy="377.4" r="134"/>
	<line class="st3" x1="377.4" y1="358.3" x2="377.4" y2="159.9"/>
	<polygon class="st2" points="377.4,160.3 351.9,134.9 377.4,64.9 402.8,134.9 	"/>
	<polyline class="st2" points="301.8,167.8 377.4,243.4 452.9,167.8 	"/>
	<polyline class="st2" points="264.3,167.8 301.8,167.8 301.8,130.3 	"/>
	<polyline class="st2" points="302.1,205.6 339.6,205.6 339.6,168.1 	"/>
	<polyline class="st2" points="490.5,167.8 452.9,167.8 452.9,130.3 	"/>
	<polyline class="st2" points="452.7,205.6 415.2,205.6 415.2,168 	"/>
	<path class="st2" d="M377.4,511.4"/>
	<path class="st2" d="M377.4,511.4"/>
	<polygon class="st2" points="339.6,339.6 283.1,322.7 240.9,240.9 322.7,283.1 	"/>
	<polygon class="st2" points="339.6,415.2 283.1,432 240.9,513.8 322.7,471.7 	"/>
	<polygon class="st2" points="415.2,339.6 471.7,322.7 513.8,240.9 432,283.1 	"/>
	<polygon class="st2" points="415.2,415.2 471.7,432 513.8,513.8 432,471.7 	"/>
	<circle class="st2" cx="377.4" cy="377.9" r="19.5"/>
	<circle class="st2" cx="293.1" cy="159.1" r="8.8"/>
	<circle class="st2" cx="461.7" cy="159.1" r="8.8"/>
	<line class="st3" x1="396.9" y1="377.4" x2="595.4" y2="377.4"/>
	<polygon class="st2" points="594.9,377.4 620.4,351.9 690.4,377.4 620.4,402.8 	"/>
	<polyline class="st2" points="587.4,301.8 511.9,377.4 587.4,452.9 	"/>
	<polyline class="st2" points="587.4,264.3 587.4,301.8 625,301.8 	"/>
	<polyline class="st2" points="549.6,302.1 549.6,339.6 587.2,339.6 	"/>
	<polyline class="st2" points="587.4,490.5 587.4,452.9 625,452.9 	"/>
	<polyline class="st2" points="549.7,452.7 549.7,415.2 587.2,415.2 	"/>
	<circle class="st2" cx="596.2" cy="293.1" r="8.8"/>
	<circle class="st2" cx="596.2" cy="461.7" r="8.8"/>
	<line class="st3" x1="377.4" y1="397.4" x2="377.4" y2="595.9"/>
	<polygon class="st2" points="377.4,595.4 402.8,620.9 377.4,690.9 351.9,620.9 	"/>
	<polyline class="st2" points="452.9,587.9 377.4,512.4 301.8,587.9 	"/>
	<polyline class="st2" points="490.5,587.9 452.9,587.9 452.9,625.5 	"/>
	<polyline class="st2" points="452.7,550.1 415.1,550.1 415.1,587.7 	"/>
	<polyline class="st2" points="264.3,587.9 301.8,587.9 301.8,625.5 	"/>
	<polyline class="st2" points="302,550.1 339.6,550.1 339.6,587.7 	"/>
	<circle class="st2" cx="461.7" cy="596.7" r="8.8"/>
	<circle class="st2" cx="293.1" cy="596.7" r="8.8"/>
	<line class="st3" x1="357.8" y1="377.4" x2="159.4" y2="377.4"/>
	<polygon class="st2" points="159.8,377.4 134.4,402.8 64.4,377.4 134.4,351.9 	"/>
	<polyline class="st2" points="167.3,452.9 242.9,377.4 167.3,301.8 	"/>
	<polyline class="st2" points="167.3,490.5 167.3,452.9 129.8,452.9 	"/>
	<polyline class="st2" points="205.1,452.7 205.1,415.1 167.6,415.1 	"/>
	<polyline class="st2" points="167.3,264.3 167.3,301.8 129.8,301.8 	"/>
	<polyline class="st2" points="205.1,302 205.1,339.6 167.5,339.6 	"/>
	<circle class="st2" cx="158.6" cy="461.7" r="8.8"/>
	<circle class="st2" cx="158.6" cy="293.1" r="8.8"/>
</g>
<g id="Layer_3">
	
		<rect x="112.2" y="112.2" transform="matrix(0.7071 0.7071 -0.7071 0.7071 377.3789 -156.3155)" class="st4" width="530.4" height="530.4"/>
	<path class="st5" d="M625,447.9h-35.5l-27.8-27.8h25.5c2.8,0,5-2.2,5-5s-2.2-5-5-5h-35.5L524,382.4h68.9l26.2,26.2l85.9-31.2
		l-85.9-31.2l-26.2,26.2H524l27.8-27.8h35.5c2.8,0,5-2.2,5-5s-2.2-5-5-5h-25.5l27.8-27.8H625c2.8,0,5-2.2,5-5s-2.2-5-5-5h-15.6
		c0.3-1.2,0.5-2.5,0.5-3.8c0-7.6-6.2-13.8-13.8-13.8c-1.3,0-2.6,0.2-3.8,0.5v-15.6c0-2.8-2.2-5-5-5s-5,2.2-5,5v35.5l-27.8,27.8
		v-25.5c0-2.8-2.2-5-5-5s-5,2.2-5,5v35.5l-34.8,34.8c-2,0-4.1,0-6.1,0c-37.9-0.6-67.2-10-87.1-28l58.5-17.4l50.3-97.6l-97.6,50.3
		l-17.4,58.5c-18-20-27.4-49.2-28-87.1c0-1.8,0-3.7,0-5.6l34.8-34.8h35.5c2.8,0,5-2.2,5-5s-2.2-5-5-5h-25.5l27.8-27.8h35.5
		c2.8,0,5-2.2,5-5s-2.2-5-5-5h-15.6c0.3-1.2,0.5-2.5,0.5-3.8c0-7.6-6.2-13.8-13.8-13.8c-1.3,0-2.6,0.2-3.8,0.5v-15.6
		c0-2.8-2.2-5-5-5s-5,2.2-5,5v35.5l-27.8,27.8V168c0-2.8-2.2-5-5-5s-5,2.2-5,5v35.5l-27.8,27.8v-68.9l26.2-26.2l-31.2-85.9
		l-31.2,85.9l26.2,26.2v68.9l-27.8-27.8v-35.5c0-2.8-2.2-5-5-5s-5,2.2-5,5v25.5l-27.8-27.8v-35.5c0-2.8-2.2-5-5-5s-5,2.2-5,5v15.6
		c-1.2-0.3-2.5-0.5-3.8-0.5c-7.6,0-13.8,6.2-13.8,13.8c0,1.3,0.2,2.6,0.5,3.8h-15.6c-2.8,0-5,2.2-5,5s2.2,5,5,5h35.5l27.8,27.8
		h-25.5c-2.8,0-5,2.2-5,5s2.2,5,5,5h35.5l34.8,34.8c0,1.9,0,3.7,0,5.6c-0.6,37.9-10,67.2-28,87.1l-17.4-58.5l-97.6-50.3l50.3,97.6
		l58.5,17.4c-20,18-49.2,27.4-87.1,28c-2,0-4,0-6.1,0l-34.8-34.8V302c0-2.8-2.2-5-5-5s-5,2.2-5,5v25.5l-27.8-27.8v-35.5
		c0-2.8-2.2-5-5-5s-5,2.2-5,5v15.6c-1.2-0.3-2.5-0.5-3.8-0.5c-7.6,0-13.8,6.2-13.8,13.8c0,1.3,0.2,2.6,0.5,3.8h-15.6
		c-2.8,0-5,2.2-5,5s2.2,5,5,5h35.5l27.8,27.8h-25.5c-2.8,0-5,2.2-5,5s2.2,5,5,5H203l27.8,27.8h-68.9l-26.2-26.2l-85.9,31.2
		l85.9,31.2l26.2-26.2h68.9l-27.8,27.8h-35.5c-2.8,0-5,2.2-5,5s2.2,5,5,5h25.5l-27.8,27.8h-35.5c-2.8,0-5,2.2-5,5s2.2,5,5,5h15.6
		c-0.3,1.2-0.5,2.5-0.5,3.8c0,7.6,6.2,13.8,13.8,13.8c1.3,0,2.6-0.2,3.8-0.5v15.6c0,2.8,2.2,5,5,5s5-2.2,5-5V455l27.8-27.8v25.5
		c0,2.8,2.2,5,5,5s5-2.2,5-5v-35.5l34.8-34.8c2,0,4.1,0,6.1,0c37.9,0.6,67.2,10,87.1,28l-58.5,17.4l-50.3,97.6l97.6-50.3l17.4-58.5
		c18,20,27.4,49.2,28,87.1c0,2.2,0,4.3,0,6.5l-34.8,34.8H302c-2.8,0-5,2.2-5,5s2.2,5,5,5h25.5l-27.8,27.8h-35.5c-2.8,0-5,2.2-5,5
		s2.2,5,5,5h15.6c-0.3,1.2-0.5,2.5-0.5,3.8c0,7.6,6.2,13.8,13.8,13.8c1.3,0,2.6-0.2,3.8-0.5v15.6c0,2.8,2.2,5,5,5s5-2.2,5-5V590
		l27.8-27.8v25.5c0,2.8,2.2,5,5,5s5-2.2,5-5v-35.5l27.8-27.8v68.9l-26.2,26.2l31.2,85.9l31.2-85.9l-26.2-26.2v-68.9l27.8,27.8v35.5
		c0,2.8,2.2,5,5,5s5-2.2,5-5v-25.5l27.8,27.8v35.5c0,2.8,2.2,5,5,5s5-2.2,5-5v-15.6c1.2,0.3,2.5,0.5,3.8,0.5
		c7.6,0,13.8-6.2,13.8-13.8c0-1.3-0.2-2.6-0.5-3.8h15.6c2.8,0,5-2.2,5-5s-2.2-5-5-5H455l-27.8-27.8h25.5c2.8,0,5-2.2,5-5s-2.2-5-5-5
		h-35.5l-34.8-34.8c0-2.2,0-4.4,0-6.5c0.6-37.9,10-67.2,28-87.1l17.4,58.5l97.6,50.3l-50.3-97.6l-58.5-17.4c20-18,49.2-27.4,87.1-28
		c2,0,4,0,6.1,0l34.8,34.8v35.5c0,2.8,2.2,5,5,5s5-2.2,5-5v-25.5l27.8,27.8v35.5c0,2.8,2.2,5,5,5s5-2.2,5-5v-15.6
		c1.2,0.3,2.5,0.5,3.8,0.5c7.6,0,13.8-6.2,13.8-13.8c0-1.3-0.2-2.6-0.5-3.8H625c2.8,0,5-2.2,5-5S627.8,447.9,625,447.9z
		 M621.7,357.7l54.1,19.7L621.7,397L602,377.4L621.7,357.7z M596.2,289.3c2.1,0,3.8,1.7,3.8,3.8s-1.7,3.8-3.8,3.8s-3.8-1.7-3.8-3.8
		S594.1,289.3,596.2,289.3z M436.2,286.6l66-34l-34,66l-45.6,13.6L436.2,286.6z M406.3,348.4c10.3,10.3,23.1,18.3,38.1,24h-43.2
		c-2.1-9.3-9.5-16.6-18.9-18.5v-43.6C388,325.3,396,338.1,406.3,348.4z M377.5,392.4C377.4,392.4,377.4,392.4,377.5,392.4
		c-0.1,0-0.1,0-0.2,0c-8,0-14.4-6.5-14.4-14.5c0-8,6.5-14.5,14.5-14.5s14.5,6.5,14.5,14.5C391.9,385.9,385.4,392.4,377.5,392.4z
		 M461.7,155.3c2.1,0,3.8,1.7,3.8,3.8s-1.7,3.8-3.8,3.8s-3.8-1.7-3.8-3.8S459.6,155.3,461.7,155.3z M377.4,79.5l19.7,54.1
		l-19.7,19.7l-19.7-19.7L377.4,79.5z M289.3,159.1c0-2.1,1.7-3.8,3.8-3.8s3.8,1.7,3.8,3.8s-1.7,3.8-3.8,3.8S289.3,161.1,289.3,159.1
		z M372.4,310.3v43.6c-9.4,1.9-16.8,9.2-18.9,18.5h-43.2c15.1-5.6,27.8-13.6,38.1-24C358.7,338.1,366.7,325.3,372.4,310.3z
		 M286.6,318.6l-34-66l66,34l13.6,45.6L286.6,318.6z M154.8,293.1c0-2.1,1.7-3.8,3.8-3.8s3.8,1.7,3.8,3.8s-1.7,3.8-3.8,3.8
		S154.8,295.1,154.8,293.1z M133.1,397L79,377.4l54.1-19.7l19.7,19.7L133.1,397z M158.6,465.5c-2.1,0-3.8-1.7-3.8-3.8
		s1.7-3.8,3.8-3.8s3.8,1.7,3.8,3.8S160.6,465.5,158.6,465.5z M318.6,468.2l-66,34l34-66l45.6-13.6L318.6,468.2z M348.4,406.3
		c-10.3-10.3-23.1-18.3-38.1-24h43c1.8,9.8,9.4,17.5,19.1,19.5v42.6C366.7,429.4,358.7,416.7,348.4,406.3z M293.1,600.5
		c-2.1,0-3.8-1.7-3.8-3.8s1.7-3.8,3.8-3.8s3.8,1.7,3.8,3.8S295.1,600.5,293.1,600.5z M377.4,676.2l-19.7-54.1l19.7-19.7l19.7,19.7
		L377.4,676.2z M465.5,596.7c0,2.1-1.7,3.8-3.8,3.8s-3.8-1.7-3.8-3.8s1.7-3.8,3.8-3.8S465.5,594.6,465.5,596.7z M468.2,436.2l34,66
		l-66-34l-13.6-45.6L468.2,436.2z M406.3,406.3c-10.3,10.3-18.3,23.1-24,38.1v-42.6c9.7-2,17.3-9.8,19.1-19.5h43
		C429.4,388,416.7,396,406.3,406.3z M600,461.7c0,2.1-1.7,3.8-3.8,3.8s-3.8-1.7-3.8-3.8s1.7-3.8,3.8-3.8S600,459.6,600,461.7z"/>
</g>
<g id="Layer_2" class="st0">
</g>
</svg>
