<?xml version="1.0" encoding="utf-8"?>
<!-- Generator: Adobe Illustrator 24.0.1, SVG Export Plug-In . SVG Version: 6.00 Build 0)  -->
<svg version="1.1" xmlns="http://www.w3.org/2000/svg" xmlns:xlink="http://www.w3.org/1999/xlink" x="0px" y="0px"
	 viewBox="0 0 917 855" style="enable-background:new 0 0 917 855;" xml:space="preserve">
<style type="text/css">
	.st0{display:none;}
	.st1{display:inline;fill:#FFFFFF;stroke:#0A6CBC;stroke-width:10;stroke-linecap:round;stroke-miterlimit:10;}
	.st2{display:inline;fill:none;stroke:#0A6CBC;stroke-width:10;stroke-linecap:round;stroke-miterlimit:10;}
	.st3{display:inline;fill:#0A6CBC;}
	.st4{display:inline;}
	.st5{fill:none;stroke:#0A6CBC;stroke-width:10;stroke-linecap:round;stroke-miterlimit:10;}
	.st6{display:inline;fill:#FFFFFF;stroke:#1A87D8;stroke-width:10;stroke-linecap:round;stroke-miterlimit:10;}
	.st7{fill:#E6F0F8;}
	.st8{fill:#0A6CBC;}
	.st9{fill:#FFFFFF;}
</style>
<g id="Layer_1" class="st0">
	<path class="st1" d="M570.9,522c-26.7,43.2-76.5,72.3-133.6,72.3S330.3,565.2,303.6,522c-40,34.5-65.1,84.2-65.1,139.5
		c0,104.1,89,188.5,198.8,188.5S636,765.6,636,661.5C636,606.2,610.9,556.4,570.9,522z"/>
	<path class="st2" d="M525.4,330.9c-21.5,24-53.2,39.1-88.6,39.1c-35.2,0-66.7-15-88.3-38.7c-39.7,26.2-65.6,69.4-65.6,118.4
		c0,79.9,69.1,144.6,154.2,144.6s154.2-64.8,154.2-144.6C591.5,400.5,565.3,357.1,525.4,330.9z"/>
	<circle class="st3" cx="458" cy="260" r="17"/>
	<circle class="st3" cx="378" cy="435" r="17"/>
	<circle class="st3" cx="378" cy="496" r="17"/>
	<circle class="st3" cx="354" cy="247" r="17"/>
	<path class="st2" d="M155.3,312.9C205.5,366.3,256,420.5,287,418"/>
	<path class="st2" d="M724.4,364.4C660.2,402.8,603.6,432.1,550,433"/>
	<path class="st2" d="M531.4,410.7c16.5,8.2,23.3,28.1,15.1,44.6"/>
	<path class="st2" d="M350,154l5.5-9.7c10.7-18.9,27.5-33.6,47.7-41.6l0,0c30.9-12.2,63.6-14.6,94.4-8.3c1,0.2,2,0.4,3,0.6
		c72.4,16.7,115.5,98.7,86.6,167.2L586,265c-3.1-12.9-11.6-27.9-24-35"/>
	<path class="st1" d="M407.6,332.3l23.1,1.4c12.7,0.8,25.1-3.5,34.6-12l0,0"/>
	<path class="st1" d="M327.1,176.6l11.4-18.2c3-4.8,9.3-6.5,14.3-3.7c48.6,27.4,117.3,40.2,198.1,48.2c5.2,0.5,9.3,4.7,9.6,9.9
		l1.4,20.8c0.5,6.7-5.3,12.1-11.9,11.4c-87.1-10.4-166.8-25.3-218.8-53.3C325.6,188.8,323.8,181.9,327.1,176.6z"/>
	<g class="st4">
		<path class="st5" d="M549.9,245c-83.6-9.9-160.3-24.1-212.4-50c-11.5,17.6-18.2,38.6-18.2,61c0,63,52.6,114,117.5,114
			s117.5-51,117.5-114c0-3.8-0.2-7.6-0.6-11.3C552.5,245,551.3,245.1,549.9,245z"/>
	</g>
	<path class="st6" d="M546,199.8l5.5-3.3c2.6-1.6,6.3-0.9,10,1.8l0,0"/>
	<path class="st1" d="M401.9,305.8L401.9,305.8c-6.8,4.5-15.2,5.4-22.7,2.4l-90.2-35.6c-6.9-2.7-4.7-12.9,2.7-12.8l97.5,1.4
		c8,0.1,15.5,4.1,19.9,10.8v0C416.5,283.2,413.3,298.3,401.9,305.8z"/>
	<path class="st1" d="M614.9,278.5L614.9,278.5c-4,0.8-6.4,4.9-5.2,8.7v0c1.9,6.2-5,11.3-10.4,7.7l0,0c-3.4-2.3-8-1.1-9.9,2.5v0
		c-3,5.7-11.5,4.5-12.8-1.9v0c-0.8-4-4.9-6.4-8.7-5.2l0,0c-6.2,1.9-11.3-5-7.7-10.4v0c2.3-3.4,1.1-8-2.5-9.9l0,0
		c-5.7-3-4.5-11.5,1.9-12.8l0,0c4-0.8,6.4-4.9,5.2-8.7l0,0c-1.9-6.2,5-11.3,10.4-7.7l0,0c3.4,2.3,8,1.1,9.9-2.5l0,0
		c3-5.7,11.5-4.5,12.8,1.9v0c0.8,4,4.9,6.4,8.7,5.2h0c6.2-1.9,11.3,5,7.7,10.4v0c-2.3,3.4-1.1,8,2.5,9.9l0,0
		C622.5,268.8,621.2,277.3,614.9,278.5z"/>
	<path class="st1" d="M221,327.4l-53,53l-41.4-41.4c-14.6-14.6-14.6-38.4,0-53l0,0c14.6-14.6,38.4-14.6,53,0L221,327.4z"/>
	<path class="st1" d="M693.7,426.1L647.6,367l46.1-36c16.3-12.7,39.9-9.8,52.6,6.5l0,0c12.7,16.3,9.8,39.9-6.5,52.6L693.7,426.1z"/>
	<line class="st1" x1="206.4" y1="312.9" x2="212" y2="283"/>
	<path class="st1" d="M238.5,631.5C144.8,606,67,597.5,5,606"/>
	<path class="st1" d="M636,631.5c95.9-10.1,188.2-34.7,275.5-79"/>
	<line class="st1" x1="666.4" y1="352.3" x2="659" y2="320"/>
	<polygon class="st3" points="187.2,504.5 170,506.3 156.5,517.2 154.7,500 143.8,486.5 161,484.7 174.5,473.8 176.3,491 	"/>
	<polygon class="st3" points="266,73.7 253.8,86 250.3,103 238,90.8 221,87.3 233.2,75 236.7,58 249,70.2 	"/>
	<polygon class="st3" points="796.4,698.5 779.9,703.4 768.5,716.4 763.6,699.9 750.6,688.5 767.1,683.6 778.5,670.6 783.4,687.1 	
		"/>
	<polygon class="st3" points="583.3,30.2 566.1,32.3 552.8,43.3 550.7,26.1 539.7,12.8 556.9,10.7 570.2,-0.3 572.3,16.9 	"/>
	<polygon class="st3" points="77.9,254.9 62.3,262.3 53.1,276.9 45.7,261.3 31.1,252.1 46.7,244.7 55.9,230.1 63.3,245.7 	"/>
	<polygon class="st3" points="183.9,736.9 168.3,744.3 159.1,758.9 151.7,743.3 137.1,734.1 152.7,726.7 161.9,712.1 169.3,727.7 	
		"/>
	<polygon class="st3" points="756.6,185.4 747.9,200.3 748.6,217.6 733.7,208.9 716.4,209.6 725.1,194.7 724.4,177.4 739.3,186.1 	
		"/>
	<polygon class="st3" points="796.6,470.4 787.9,485.3 788.6,502.6 773.7,493.9 756.4,494.6 765.1,479.7 764.4,462.4 779.3,471.1 	
		"/>
</g>
<g id="Layer_2">
	<g>
		<path class="st7" d="M570.9,522c-26.7,43.2-76.5,72.3-133.6,72.3S330.3,565.2,303.6,522c-40,34.5-65.1,84.2-65.1,139.5
			c0,104.1,89,188.5,198.8,188.5S636,765.6,636,661.5C636,606.2,610.9,556.4,570.9,522z"/>
		<path class="st8" d="M437.3,855c-112.3,0-203.8-86.8-203.8-193.5c0-54.5,24.4-106.7,66.9-143.3l4.4-3.8l3.1,5
			c26.6,43.2,76.2,70,129.4,70s102.7-26.8,129.4-70l3.1-5l4.4,3.8C616.6,554.8,641,607,641,661.5C641,768.2,549.6,855,437.3,855z
			 M302.6,529.6c-37.6,34.5-59.1,82.2-59.1,131.9c0,101.2,86.9,183.5,193.8,183.5S631,762.7,631,661.5c0-49.7-21.5-97.5-59.1-131.9
			c-13.6,20.1-32.1,37-54,49.1c-24.3,13.5-52.2,20.6-80.6,20.6s-56.3-7.1-80.6-20.6C334.7,566.6,316.2,549.7,302.6,529.6z"/>
	</g>
	<path class="st8" d="M437.3,599.3c-87.8,0-159.2-67.1-159.2-149.6c0-48.7,25.3-94.5,67.8-122.5l3.6-2.4l2.9,3.2
		c21.4,23.6,52.2,37.1,84.6,37.1c32.5,0,63.5-13.6,84.9-37.4l2.9-3.2l3.6,2.3c42.8,28,68.4,73.9,68.4,122.9
		C596.5,532.2,525.1,599.3,437.3,599.3z M347.8,337.8c-37.6,26.3-59.8,67.8-59.8,111.8c0,77,67,139.6,149.2,139.6
		s149.2-62.6,149.2-139.6c0-44.2-22.5-85.9-60.4-112.2C503,361.4,470.7,375,436.8,375C403.1,375,371,361.5,347.8,337.8z"/>
	<circle class="st8" cx="458" cy="260" r="17"/>
	<circle class="st8" cx="378" cy="435" r="17"/>
	<circle class="st8" cx="378" cy="496" r="17"/>
	<circle class="st8" cx="354" cy="247" r="17"/>
	<path class="st8" d="M284.9,423.1c-32.9,0-80.8-50.9-131.3-104.7l-2-2.1c-1.9-2-1.8-5.2,0.2-7.1c2-1.9,5.2-1.8,7.1,0.2l2,2.1
		c48,51,97.6,103.8,125.7,101.5c2.8-0.2,5.2,1.8,5.4,4.6c0.2,2.8-1.8,5.2-4.6,5.4C286.6,423.1,285.8,423.1,284.9,423.1z"/>
	<path class="st8" d="M550,438c-2.7,0-5-2.2-5-4.9c0-2.8,2.2-5,4.9-5.1c50-0.8,102.9-26.6,171.9-67.9c2.4-1.4,5.4-0.6,6.9,1.7
		c1.4,2.4,0.6,5.4-1.7,6.9C656.5,410.8,602.3,437.1,550,438C550.1,438,550,438,550,438z"/>
	<path class="st8" d="M546.5,460.4c-0.7,0-1.5-0.2-2.2-0.5c-2.5-1.2-3.5-4.2-2.3-6.7c3.4-6.8,3.9-14.5,1.4-21.6s-7.5-13-14.3-16.3
		c-2.5-1.2-3.5-4.2-2.3-6.7c1.2-2.5,4.2-3.5,6.7-2.3c9.2,4.5,16,12.4,19.3,22.1c3.3,9.7,2.6,20.1-1.9,29.3
		C550.1,459.4,548.4,460.4,546.5,460.4z"/>
	<path class="st8" d="M584.7,280.9l-3.6-14.8c-2.7-11.2-10.4-25.4-21.6-31.8c-2.4-1.4-3.2-4.4-1.8-6.8c1.4-2.4,4.4-3.2,6.8-1.8
		c9.9,5.7,17.1,15.5,21.6,25c9-28.5,6.2-60.2-8.2-88.3c-16.3-32-44.9-54.7-78.4-62.4c-0.9-0.2-1.9-0.4-2.8-0.6
		c-30.7-6.3-62.4-3.5-91.6,8c-19.1,7.5-35.1,21.5-45.2,39.4l-5.5,9.7c-1.4,2.4-4.4,3.3-6.8,1.9c-2.4-1.4-3.3-4.4-1.9-6.8l5.5-9.7
		c11.2-19.9,29.1-35.4,50.3-43.8c31-12.2,64.6-15.2,97.3-8.5c1,0.2,2.1,0.4,3.1,0.7c36.4,8.4,67.4,33,85.1,67.6
		c17.4,34,19.2,72.7,5,106.3L584.7,280.9z"/>
	<g>
		<path class="st9" d="M407.6,332.3l23.1,1.4c12.7,0.8,25.1-3.5,34.6-12l0,0"/>
		<path class="st8" d="M433.6,338.8c-1.1,0-2.1,0-3.2-0.1l-23.1-1.4c-2.8-0.2-4.9-2.5-4.7-5.3c0.2-2.8,2.5-4.9,5.3-4.7l23.1,1.4
			c11.4,0.7,22.4-3.1,31-10.7c2.1-1.8,5.2-1.6,7.1,0.4c1.8,2.1,1.6,5.2-0.4,7.1C458.8,334.1,446.5,338.8,433.6,338.8z"/>
	</g>
	<g>
		<path class="st7" d="M327.1,176.6l11.4-18.2c3-4.8,9.3-6.5,14.3-3.7c48.6,27.4,117.3,40.2,198.1,48.2c5.2,0.5,9.3,4.7,9.6,9.9
			l1.4,20.8c0.5,6.7-5.3,12.1-11.9,11.4c-87.1-10.4-166.8-25.3-218.8-53.3C325.6,188.8,323.8,181.9,327.1,176.6z"/>
		<path class="st8" d="M551.2,250c-0.6,0-1.2,0-1.9-0.1c-106.9-12.7-174.9-29.3-220.6-53.8c-3.8-2.1-6.7-5.6-7.8-9.8
			c-1.1-4.2-0.4-8.7,1.9-12.3l11.4-18.2c4.5-7.1,13.7-9.5,21-5.4c41.8,23.6,102.3,38.3,196.1,47.5c7.6,0.8,13.6,6.9,14.1,14.5
			l1.4,20.8c0.3,4.7-1.4,9.2-4.8,12.4C559.1,248.5,555.2,250,551.2,250z M347.5,158.3c-1.9,0-3.7,1-4.8,2.7l-11.4,18.2
			c-0.8,1.3-1.1,2.9-0.7,4.5c0.4,1.5,1.4,2.8,2.8,3.6c44.5,23.9,111.5,40.1,217.1,52.7c1.7,0.2,3.4-0.4,4.6-1.5
			c1.2-1.2,1.9-2.8,1.8-4.5l-1.4-20.8c-0.2-2.8-2.3-5-5.1-5.3c-95.3-9.4-157-24.5-200.1-48.8C349.4,158.6,348.4,158.3,347.5,158.3z
			 M327.1,176.6L327.1,176.6L327.1,176.6z"/>
	</g>
	<g>
		<path class="st8" d="M436.8,375c-67.6,0-122.5-53.4-122.5-119c0-22.7,6.6-44.7,19-63.8l2.4-3.7l4,2
			c44.2,21.9,111.1,37.6,210.8,49.5h0c0.7,0.1,1.4,0,2-0.1l5.6-1.4l0.6,5.7c0.4,3.9,0.6,7.9,0.6,11.8
			C559.3,321.6,504.4,375,436.8,375z M339.4,201.5c-9.9,16.5-15.1,35.3-15.1,54.6c0,60.1,50.5,109,112.5,109s112.5-48.9,112.5-109
			c0-2-0.1-4.1-0.2-6.1C450.1,238.1,385,223.1,339.4,201.5z"/>
	</g>
	<g>
		<path class="st9" d="M546,199.8l5.5-3.3c2.6-1.6,6.3-0.9,10,1.8l0,0"/>
		<path class="st8" d="M546.1,204.9c-1.7,0-3.4-0.9-4.3-2.4c-1.4-2.4-0.7-5.4,1.7-6.9l5.5-3.3c4.4-2.6,10.2-1.8,15.5,2.1
			c2.2,1.6,2.7,4.8,1.1,7c-1.6,2.2-4.8,2.7-7,1.1c-2.4-1.8-4-1.8-4.4-1.6l-5.5,3.3C547.8,204.6,546.9,204.9,546.1,204.9z"/>
	</g>
	<g>
		<path class="st7" d="M401.9,305.8L401.9,305.8c-6.8,4.5-15.2,5.4-22.7,2.4l-90.2-35.6c-6.9-2.7-4.7-12.9,2.7-12.8l97.5,1.4
			c8,0.1,15.5,4.1,19.9,10.8v0C416.5,283.2,413.3,298.3,401.9,305.8z"/>
		<path class="st8" d="M388.2,314.9c-3.7,0-7.3-0.7-10.8-2.1l-90.2-35.6c-5.3-2.1-8.2-7.4-7.1-13c1.1-5.7,5.9-9.6,11.7-9.5l97.5,1.4
			c9.7,0.1,18.7,5,24,13c4.3,6.5,5.8,14.4,4.1,22.1c-1.6,7.7-6.2,14.3-12.8,18.6l0,0C399.7,313.2,394,314.9,388.2,314.9z
			 M401.9,305.8L401.9,305.8L401.9,305.8z M291.7,264.9c-1.2,0-1.6,0.8-1.7,1.4c-0.2,1.3,0.6,1.6,0.9,1.7l90.2,35.6
			c5.9,2.3,12.7,1.6,18.1-1.9c4.4-2.9,7.4-7.3,8.5-12.4c1.1-5.1,0.1-10.2-2.7-14.5c-3.5-5.3-9.4-8.5-15.8-8.6L291.7,264.9
			C291.7,264.9,291.7,264.9,291.7,264.9z"/>
	</g>
	<g>
		<path class="st7" d="M614.9,278.5L614.9,278.5c-4,0.8-6.4,4.9-5.2,8.7v0c1.9,6.2-5,11.3-10.4,7.7l0,0c-3.4-2.3-8-1.1-9.9,2.5v0
			c-3,5.7-11.5,4.5-12.8-1.9v0c-0.8-4-4.9-6.4-8.7-5.2l0,0c-6.2,1.9-11.3-5-7.7-10.4v0c2.3-3.4,1.1-8-2.5-9.9l0,0
			c-5.7-3-4.5-11.5,1.9-12.8l0,0c4-0.8,6.4-4.9,5.2-8.7l0,0c-1.9-6.2,5-11.3,10.4-7.7l0,0c3.4,2.3,8,1.1,9.9-2.5l0,0
			c3-5.7,11.5-4.5,12.8,1.9v0c0.8,4,4.9,6.4,8.7,5.2h0c6.2-1.9,11.3,5,7.7,10.4v0c-2.3,3.4-1.1,8,2.5,9.9l0,0
			C622.5,268.8,621.2,277.3,614.9,278.5z"/>
		<path class="st8" d="M583.4,306.1c-0.6,0-1.2,0-1.8-0.1c-5-0.7-8.9-4.4-9.9-9.4c-0.1-0.7-0.6-1.1-0.9-1.2s-0.8-0.4-1.5-0.2
			c-4.9,1.5-10-0.2-13-4.3c-3-4.1-3.2-9.5-0.3-13.7c0.4-0.6,0.3-1.2,0.3-1.5c-0.1-0.3-0.3-0.9-0.9-1.2c-4.5-2.4-6.9-7.2-6.2-12.2
			s4.4-8.9,9.4-9.9c0.7-0.1,1.1-0.6,1.2-0.9c0.2-0.3,0.4-0.8,0.2-1.5c-1.5-4.9,0.2-10,4.3-13c4.1-3,9.5-3.2,13.7-0.3
			c0.6,0.4,1.2,0.3,1.5,0.3c0.3-0.1,0.9-0.3,1.2-0.9c2.4-4.5,7.2-6.9,12.2-6.2c5,0.7,8.9,4.4,9.9,9.4c0.1,0.7,0.6,1.1,0.9,1.2
			c0.3,0.2,0.8,0.4,1.5,0.2c4.9-1.5,10,0.2,13,4.3c3,4.1,3.2,9.5,0.3,13.7c-0.4,0.6-0.3,1.2-0.3,1.5c0.1,0.3,0.3,0.9,0.9,1.2
			c4.5,2.4,6.9,7.2,6.2,12.2s-4.4,8.9-9.4,9.9l0,0c-0.7,0.1-1.1,0.6-1.2,0.9s-0.4,0.8-0.2,1.5c1.5,4.9-0.2,10-4.3,13
			c-4.1,3-9.5,3.2-13.7,0.3c-0.6-0.4-1.2-0.3-1.5-0.3c-0.3,0.1-0.9,0.3-1.2,0.9C591.7,303.8,587.7,306.1,583.4,306.1z M569.9,285.1
			c2.1,0,4.2,0.6,6.1,1.7c2.9,1.7,4.9,4.6,5.6,7.9c0.2,1.1,1.1,1.4,1.6,1.5s1.4,0,1.9-1c1.6-3,4.3-5.1,7.6-5.9
			c3.3-0.8,6.7-0.2,9.5,1.6c0.9,0.6,1.8,0.2,2.2-0.1c0.4-0.3,1-0.9,0.7-2c-1-3.2-0.6-6.7,1.2-9.6c1.7-2.9,4.6-4.9,7.9-5.6h0
			c1.1-0.2,1.4-1.1,1.5-1.6s0-1.4-1-1.9c-3-1.6-5.1-4.3-5.9-7.6c-0.8-3.2-0.2-6.7,1.6-9.5c0.6-1,0.2-1.8-0.1-2.1
			c-0.3-0.4-0.9-1-2-0.7c-3.2,1-6.7,0.6-9.6-1.2c-2.9-1.7-4.9-4.6-5.6-7.9c-0.2-1.1-1.1-1.4-1.6-1.5c-0.5-0.1-1.4,0-1.9,1
			c-1.6,3-4.3,5.1-7.6,5.9c-3.3,0.8-6.7,0.2-9.5-1.6c-0.9-0.6-1.8-0.2-2.2,0.1c-0.4,0.3-1,0.9-0.7,2c1,3.2,0.6,6.7-1.2,9.6
			c-1.7,2.9-4.6,4.9-7.9,5.6c-1.1,0.2-1.4,1.1-1.5,1.6s0,1.4,1,1.9c3,1.6,5.1,4.3,5.9,7.6c0.8,3.2,0.2,6.7-1.6,9.5
			c-0.6,1-0.2,1.8,0.1,2.1c0.3,0.4,0.9,1,2,0.7C567.5,285.2,568.7,285.1,569.9,285.1z"/>
	</g>
	<g>
		<path class="st7" d="M221,327.4l-53,53l-41.4-41.4c-14.6-14.6-14.6-38.4,0-53l0,0c14.6-14.6,38.4-14.6,53,0L221,327.4z"/>
		<path class="st8" d="M167.9,387.5L123,342.6c-8-8-12.4-18.7-12.4-30.1c0-11.4,4.4-22,12.4-30.1s18.7-12.4,30.1-12.4
			c11.4,0,22,4.4,30.1,12.4l44.9,44.9L167.9,387.5z M153.1,280.1c-8.7,0-16.8,3.4-23,9.5c-6.1,6.1-9.5,14.3-9.5,23
			c0,8.7,3.4,16.8,9.5,23l37.8,37.8l46-46l-37.8-37.8C169.9,283.5,161.8,280.1,153.1,280.1z"/>
	</g>
	<g>
		<path class="st7" d="M693.7,426.1L647.6,367l46.1-36c16.3-12.7,39.9-9.8,52.6,6.5l0,0c12.7,16.3,9.8,39.9-6.5,52.6L693.7,426.1z"
			/>
		<path class="st8" d="M692.8,433.1l-52.3-67l50.1-39.1c9-7,20.1-10.1,31.4-8.7c11.3,1.4,21.3,7.1,28.3,16
			c14.4,18.5,11.1,45.2-7.4,59.6L692.8,433.1z M654.6,367.8l40,51.3l42.2-32.9c14.1-11,16.7-31.5,5.6-45.6
			c-5.3-6.8-13-11.2-21.6-12.3c-8.6-1.1-17.1,1.3-24,6.6L654.6,367.8z"/>
	</g>
	<g>
		<line class="st9" x1="206.4" y1="312.9" x2="212" y2="283"/>
		<path class="st8" d="M206.4,317.9c-0.3,0-0.6,0-0.9-0.1c-2.7-0.5-4.5-3.1-4-5.8l5.6-29.9c0.5-2.7,3.1-4.5,5.8-4
			c2.7,0.5,4.5,3.1,4,5.8l-5.6,29.9C210.9,316.2,208.8,317.9,206.4,317.9z"/>
	</g>
	<g>
		<path class="st9" d="M238.5,631.5C144.8,606,67,597.5,5,606"/>
		<path class="st8" d="M238.5,636.5c-0.4,0-0.9-0.1-1.3-0.2C144.6,611.1,66.7,602.6,5.7,611c-2.7,0.4-5.3-1.5-5.6-4.3
			c-0.4-2.7,1.5-5.3,4.3-5.6c62.3-8.6,141.6,0.1,235.5,25.6c2.7,0.7,4.2,3.5,3.5,6.1C242.7,635,240.7,636.5,238.5,636.5z"/>
	</g>
	<g>
		<path class="st9" d="M636,631.5c95.9-10.1,188.2-34.7,275.5-79"/>
		<path class="st8" d="M636,636.5c-2.5,0-4.7-1.9-5-4.5c-0.3-2.7,1.7-5.2,4.4-5.5c101.1-10.7,190.7-36.3,273.8-78.5
			c2.5-1.3,5.5-0.3,6.7,2.2c1.2,2.5,0.3,5.5-2.2,6.7c-84.2,42.7-174.9,68.7-277.2,79.5C636.3,636.5,636.2,636.5,636,636.5z"/>
	</g>
	<g>
		<line class="st9" x1="666.4" y1="352.3" x2="659" y2="320"/>
		<path class="st8" d="M666.4,357.3c-2.3,0-4.3-1.6-4.9-3.9l-7.4-32.3c-0.6-2.7,1.1-5.4,3.8-6c2.7-0.6,5.4,1.1,6,3.8l7.4,32.3
			c0.6,2.7-1.1,5.4-3.8,6C667.1,357.2,666.8,357.3,666.4,357.3z"/>
	</g>
	<polygon class="st8" points="187.2,504.5 170,506.3 156.5,517.2 154.7,500 143.8,486.5 161,484.7 174.5,473.8 176.3,491 	"/>
	<polygon class="st8" points="266,73.7 253.8,86 250.3,103 238,90.8 221,87.3 233.2,75 236.7,58 249,70.2 	"/>
	<polygon class="st8" points="796.4,698.5 779.9,703.4 768.5,716.4 763.6,699.9 750.6,688.5 767.1,683.6 778.5,670.6 783.4,687.1 	
		"/>
	<polygon class="st8" points="583.3,30.2 566.1,32.3 552.8,43.3 550.7,26.1 539.7,12.8 556.9,10.7 570.2,-0.3 572.3,16.9 	"/>
	<polygon class="st8" points="77.9,254.9 62.3,262.3 53.1,276.9 45.7,261.3 31.1,252.1 46.7,244.7 55.9,230.1 63.3,245.7 	"/>
	<polygon class="st8" points="183.9,736.9 168.3,744.3 159.1,758.9 151.7,743.3 137.1,734.1 152.7,726.7 161.9,712.1 169.3,727.7 	
		"/>
	<polygon class="st8" points="756.6,185.4 747.9,200.3 748.6,217.6 733.7,208.9 716.4,209.6 725.1,194.7 724.4,177.4 739.3,186.1 	
		"/>
	<polygon class="st8" points="796.6,470.4 787.9,485.3 788.6,502.6 773.7,493.9 756.4,494.6 765.1,479.7 764.4,462.4 779.3,471.1 	
		"/>
</g>
</svg>
