<?xml version="1.0" encoding="utf-8"?>
<!-- Generator: Adobe Illustrator 23.0.3, SVG Export Plug-In . SVG Version: 6.00 Build 0)  -->
<svg version="1.1" xmlns="http://www.w3.org/2000/svg" xmlns:xlink="http://www.w3.org/1999/xlink" x="0px" y="0px"
	 viewBox="0 0 600 600" style="enable-background:new 0 0 600 600;" xml:space="preserve">
<style type="text/css">
	.st0{display:none;}
	.st1{display:inline;fill:#9E1212;}
	.st2{fill:#FFFFFF;}
	.st3{fill:#3DBF1D;}
	.st4{fill:none;stroke:#3DBF1D;stroke-width:5;stroke-linecap:round;stroke-miterlimit:10;}
	.st5{fill:#3DBF1D;stroke:#3DBF1D;stroke-width:3;stroke-miterlimit:10;}
	.st6{fill:#A0A0A0;}
	.st7{fill:#E8A42A;}
	.st8{fill:#FFFFFF;stroke:#E8A42A;stroke-width:5;stroke-miterlimit:10;}
	.st9{fill:#E8A42A;stroke:#E8A42A;stroke-width:3;stroke-miterlimit:10;}
	.st10{fill:#FF353A;}
	.st11{fill:#FF353A;stroke:#FF353A;stroke-width:3;stroke-miterlimit:10;}
	.st12{fill:#FFFFFF;stroke:#FF353A;stroke-width:5;stroke-miterlimit:10;}
	.st13{fill:none;stroke:#FF353A;stroke-width:5;stroke-linecap:round;stroke-miterlimit:10;}
	.st14{fill:none;stroke:#E8A42A;stroke-width:5;stroke-linecap:round;stroke-miterlimit:10;}
</style>
<g id="Layer_1">
	<g class="st0">
		<rect class="st1" width="600" height="600"/>
	</g>
	<g>
		<path class="st2" d="M779,166c26.5,0,48,21.5,48,48s-21.5,48-48,48s-48-21.5-48-48S752.5,166,779,166 M779,156c-32,0-58,26-58,58
			s26,58,58,58s58-26,58-58S811,156,779,156L779,156z"/>
	</g>
	<g>
		<circle class="st2" cx="779" cy="214" r="45.5"/>
		<path class="st3" d="M779,171c23.7,0,43,19.3,43,43s-19.3,43-43,43s-43-19.3-43-43S755.3,171,779,171 M779,166
			c-26.5,0-48,21.5-48,48s21.5,48,48,48s48-21.5,48-48S805.5,166,779,166L779,166z"/>
	</g>
	<path class="st4" d="M750.5,225.5l3.4,3.4c14.1,14.1,37,14.1,51.2,0l3.4-3.4"/>
	<circle class="st5" cx="799.5" cy="207.5" r="5"/>
	<circle class="st5" cx="760.5" cy="207.5" r="5"/>
	<path class="st2" d="M779,9c26.5,0,48,21.5,48,48s-21.5,48-48,48s-48-21.5-48-48S752.5,9,779,9 M779-1c-32,0-58,26-58,58
		s26,58,58,58s58-26,58-58S811-1,779-1L779-1z"/>
	<g>
		<circle class="st2" cx="779" cy="57" r="48"/>
		<path class="st6" d="M779,14c23.7,0,43,19.3,43,43s-19.3,43-43,43s-43-19.3-43-43S755.3,14,779,14 M779,9c-26.5,0-48,21.5-48,48
			s21.5,48,48,48s48-21.5,48-48S805.5,9,779,9L779,9z"/>
	</g>
	<path class="st6" d="M779.5,85c-9.9,0-19.8-3.8-27.4-11.3l-3.4-3.4c-1-1-1-2.6,0-3.5s2.6-1,3.5,0l3.4,3.4
		c6.4,6.4,14.8,9.9,23.8,9.9s17.5-3.5,23.8-9.9l3.4-3.4c1-1,2.6-1,3.5,0s1,2.6,0,3.5l-3.4,3.4C799.3,81.2,789.4,85,779.5,85z"/>
	<g>
		<circle class="st6" cx="799.5" cy="50.5" r="5"/>
		<path class="st6" d="M799.5,57c-3.6,0-6.5-2.9-6.5-6.5s2.9-6.5,6.5-6.5s6.5,2.9,6.5,6.5S803.1,57,799.5,57z M799.5,47
			c-1.9,0-3.5,1.6-3.5,3.5s1.6,3.5,3.5,3.5s3.5-1.6,3.5-3.5S801.4,47,799.5,47z"/>
	</g>
	<g>
		<circle class="st6" cx="760.5" cy="50.5" r="5"/>
		<path class="st6" d="M760.5,57c-3.6,0-6.5-2.9-6.5-6.5s2.9-6.5,6.5-6.5s6.5,2.9,6.5,6.5S764.1,57,760.5,57z M760.5,47
			c-1.9,0-3.5,1.6-3.5,3.5s1.6,3.5,3.5,3.5s3.5-1.6,3.5-3.5S762.4,47,760.5,47z"/>
	</g>
	<g>
		<circle class="st2" cx="920" cy="214" r="45.5"/>
		<path class="st7" d="M920,171c23.7,0,43,19.3,43,43s-19.3,43-43,43s-43-19.3-43-43S896.3,171,920,171 M920,166
			c-26.5,0-48,21.5-48,48s21.5,48,48,48s48-21.5,48-48S946.5,166,920,166L920,166z"/>
	</g>
	<g>
		<path class="st2" d="M920,166c26.5,0,48,21.5,48,48s-21.5,48-48,48s-48-21.5-48-48S893.5,166,920,166 M920,156c-32,0-58,26-58,58
			s26,58,58,58s58-26,58-58S952,156,920,156L920,156z"/>
	</g>
	<path class="st8" d="M891.5,219.5"/>
	<circle class="st9" cx="939.5" cy="207.5" r="5"/>
	<circle class="st9" cx="900.5" cy="207.5" r="5"/>
	<g>
		<circle class="st2" cx="1061" cy="214" r="45.5"/>
		<path class="st10" d="M1061,171c23.7,0,43,19.3,43,43s-19.3,43-43,43s-43-19.3-43-43S1037.3,171,1061,171 M1061,166
			c-26.5,0-48,21.5-48,48s21.5,48,48,48s48-21.5,48-48S1087.5,166,1061,166L1061,166z"/>
	</g>
	<circle class="st11" cx="1080.5" cy="207.5" r="5"/>
	<circle class="st11" cx="1041.5" cy="207.5" r="5"/>
	<g>
		<path class="st2" d="M1061,166c26.5,0,48,21.5,48,48s-21.5,48-48,48s-48-21.5-48-48S1034.5,166,1061,166 M1061,156
			c-32,0-58,26-58,58s26,58,58,58s58-26,58-58S1093,156,1061,156L1061,156z"/>
	</g>
	<path class="st12" d="M1001,307"/>
	<path class="st13" d="M1081.5,235.5l-6-1.8c-9.1-2.7-18.9-2.7-28,0l-6,1.8"/>
	<g>
		<circle class="st2" cx="1061" cy="57" r="48"/>
		<path class="st6" d="M1061,14c23.7,0,43,19.3,43,43s-19.3,43-43,43s-43-19.3-43-43S1037.3,14,1061,14 M1061,9
			c-26.5,0-48,21.5-48,48s21.5,48,48,48s48-21.5,48-48S1087.5,9,1061,9L1061,9z"/>
	</g>
	<g>
		<circle class="st6" cx="1080.5" cy="50.5" r="5"/>
		<path class="st6" d="M1080.5,57c-3.6,0-6.5-2.9-6.5-6.5s2.9-6.5,6.5-6.5s6.5,2.9,6.5,6.5S1084.1,57,1080.5,57z M1080.5,47
			c-1.9,0-3.5,1.6-3.5,3.5s1.6,3.5,3.5,3.5s3.5-1.6,3.5-3.5S1082.4,47,1080.5,47z"/>
	</g>
	<g>
		<circle class="st6" cx="1041.5" cy="50.5" r="5"/>
		<path class="st6" d="M1041.5,57c-3.6,0-6.5-2.9-6.5-6.5s2.9-6.5,6.5-6.5s6.5,2.9,6.5,6.5S1045.1,57,1041.5,57z M1041.5,47
			c-1.9,0-3.5,1.6-3.5,3.5s1.6,3.5,3.5,3.5s3.5-1.6,3.5-3.5S1043.4,47,1041.5,47z"/>
	</g>
	<path class="st2" d="M1061,9c26.5,0,48,21.5,48,48s-21.5,48-48,48s-48-21.5-48-48S1034.5,9,1061,9 M1061-1c-32,0-58,26-58,58
		s26,58,58,58s58-26,58-58S1093-1,1061-1L1061-1z"/>
	<path class="st6" d="M1081.5,81c-0.2,0-0.5,0-0.7-0.1l-6-1.8c-8.7-2.6-17.9-2.6-26.6,0l-6,1.8c-1.3,0.4-2.7-0.4-3.1-1.7
		c-0.4-1.3,0.4-2.7,1.7-3.1l6-1.8c9.6-2.9,19.8-2.9,29.5,0l6,1.8c1.3,0.4,2.1,1.8,1.7,3.1C1083.6,80.3,1082.6,81,1081.5,81z"/>
	<line class="st14" x1="894.5" y1="233.5" x2="946.5" y2="233.5"/>
	<g>
		<circle class="st2" cx="300" cy="300" r="248.3"/>
		<path class="st6" d="M300,77.6c122.6,0,222.4,99.8,222.4,222.4S422.6,522.4,300,522.4S77.6,422.6,77.6,300S177.4,77.6,300,77.6
			 M300,51.7C162.9,51.7,51.7,162.9,51.7,300S162.9,548.3,300,548.3S548.3,437.1,548.3,300S437.1,51.7,300,51.7L300,51.7z"/>
	</g>
	<path class="st2" d="M300,51.7c137.1,0,248.3,111.2,248.3,248.3S437.1,548.3,300,548.3S51.7,437.1,51.7,300S162.9,51.7,300,51.7
		 M300,0C134.6,0,0,134.6,0,300s134.6,300,300,300s300-134.6,300-300S465.4,0,300,0L300,0z"/>
	<path class="st8" d="M152.6,328.4"/>
	<g>
		<circle class="st6" cx="400.9" cy="266.4" r="25.9"/>
		<path class="st6" d="M400.9,300c-18.5,0-33.6-15.1-33.6-33.6c0-18.5,15.1-33.6,33.6-33.6c18.5,0,33.6,15.1,33.6,33.6
			C434.5,284.9,419.4,300,400.9,300z M400.9,248.3c-10,0-18.1,8.1-18.1,18.1s8.1,18.1,18.1,18.1s18.1-8.1,18.1-18.1
			S410.8,248.3,400.9,248.3z"/>
	</g>
	<g>
		<circle class="st6" cx="199.1" cy="266.4" r="25.9"/>
		<path class="st6" d="M199.1,300c-18.5,0-33.6-15.1-33.6-33.6c0-18.5,15.1-33.6,33.6-33.6s33.6,15.1,33.6,33.6
			C232.8,284.9,217.7,300,199.1,300z M199.1,248.3c-10,0-18.1,8.1-18.1,18.1s8.1,18.1,18.1,18.1c10,0,18.1-8.1,18.1-18.1
			S209.1,248.3,199.1,248.3z"/>
	</g>
	<path class="st6" d="M437.1,413.8h-269c-7.1,0-12.9-5.8-12.9-12.9c0-7.1,5.8-12.9,12.9-12.9h269c7.1,0,12.9,5.8,12.9,12.9
		C450,408,444.2,413.8,437.1,413.8z"/>
</g>
<g id="Layer_2">
</g>
</svg>
