<?xml version="1.0" encoding="utf-8"?>
<!-- Generator: Adobe Illustrator 24.3.0, SVG Export Plug-In . SVG Version: 6.00 Build 0)  -->
<svg version="1.1" id="Layer_1" focusable="false" xmlns="http://www.w3.org/2000/svg" xmlns:xlink="http://www.w3.org/1999/xlink"
	 x="0px" y="0px" viewBox="0 0 800.1 738" style="enable-background:new 0 0 800.1 738;" xml:space="preserve">
<style type="text/css">
	.st0{fill:none;}
	.st1{fill:#C3DB6E;}
</style>
<g>
	<path class="st0" d="M487.9,309.1V290h-23v21.3c0,2.9,0.8,5.7,2.3,8.1l29.2,46.7h-22.6l-23-34.6c-1.5-2.2-3.9-3.4-6.4-3.4
		c-1.5,0-2.9,0.4-4.3,1.3l-6.4,4.3c-3.5,2.4-4.5,7.1-2.1,10.6l25.3,38c2.8,4.3,7.6,6.8,12.8,6.8h37.4L474,400.9
		c-3.2,1.1-6,3.2-7.9,6.1l-25.7,38.6c-2.4,3.5-1.4,8.3,2.1,10.6l6.4,4.3c1.3,0.9,2.8,1.3,4.3,1.3c2.5,0,4.9-1.2,6.4-3.4l24.3-36.4
		l28.2-9.4v-64.9L487.9,309.1z"/>
	<path class="st0" d="M489.8,457.8c-1.8,3.6-2.1,7.9-0.8,11.7l12.4,37.3c1.1,3.2,4.1,5.3,7.3,5.3c0.8,0,1.6-0.1,2.4-0.4l0.9-0.3
		v-45.7l-0.1-0.4l0.1-0.3v-36.3l-9.1,3L489.8,457.8z"/>
	<path class="st0" d="M530.4,226.1c-7.2-15.7-19.1-26.5-30-31.9c-9.1-4.5-26.8-10.1-44.1,2.9L427.3,226H528
		C528.8,226,529.6,226,530.4,226.1z"/>
	<polygon class="st0" points="512,313.7 512,290 505.9,290 505.9,303.9 	"/>
	<path class="st0" d="M601.9,437.1l5-24.9h17.3l29,9.7l24.3,36.4c1.5,2.2,3.9,3.4,6.4,3.4c1.5,0,2.9-0.4,4.3-1.3l6.4-4.3
		c3.5-2.4,4.5-7.1,2.1-10.6L671,406.9c-1.9-2.8-4.7-5-7.9-6.1L630,389.2h37.4c5.1,0,9.9-2.6,12.8-6.8l25.3-38
		c2.4-3.5,1.4-8.3-2.1-10.6l-6.4-4.3c-1.3-0.9-2.8-1.3-4.3-1.3c-2.5,0-4.9,1.2-6.4,3.4l-23,34.6h-22.6l29.2-46.7
		c1.5-2.4,2.3-5.3,2.3-8.1V274c0-4.2-3.4-7.7-7.7-7.7h-7.7c-4.2,0-7.7,3.4-7.7,7.7v35.1L613.6,366c0.5-6.7,1-13.5,1-20.3
		c0-13.1-5.1-25.5-13.7-34.5c1.7,3.9,2.1,8,1.6,11.5c-0.9,5.9-5,16.2-21.9,18.2c-1.5,0.2-3,0.3-4.5,0.4v123.9
		C595.1,461.1,601,441.8,601.9,437.1z"/>
	<path class="st0" d="M484.4,512.5l-12.4-37.3c-0.3-0.9-0.6-1.9-0.8-2.8c-4.8,4.7-11.2,7.3-18,7.3c-5.1,0-10-1.5-14.2-4.3l-6.4-4.3
		c-5.7-3.8-9.6-9.6-10.9-16.3c-1.3-6.7,0-13.6,3.8-19.3L449,400c-2.7-2.1-5.1-4.7-7.1-7.7l-25.3-38c-3.8-5.7-5.2-12.6-3.8-19.3
		c1.3-6.7,5.2-12.5,10.9-16.3l6.4-4.3c4.2-2.8,9.2-4.3,14.2-4.3c0.8,0,1.7,0,2.5,0.1V290H128v256h384v-16.2
		c-1.1,0.1-2.2,0.2-3.3,0.2C497.6,530,487.9,523,484.4,512.5z"/>
	<path class="st0" d="M634.2,431.7l-12.4-4.2h-2.2l-2.5,12.5c-0.3,1.7-0.9,3.6-1.5,5.7l9.7,19.5l-11.4,34.3c-1.3,4,0.8,8.4,4.9,9.7
		l7.3,2.4c0.8,0.3,1.6,0.4,2.4,0.4c3.2,0,6.2-2,7.3-5.3l12.4-37.3c1.3-3.9,1-8.1-0.8-11.7L634.2,431.7z"/>
	<path d="M518.4,509.2c4-1.3,6.2-5.7,4.9-9.7L512,465.7v45.7L518.4,509.2z"/>
	<path d="M480.2,266.3h-7.7c-4.2,0-7.7,3.4-7.7,7.7v16h23v-16C487.9,269.8,484.5,266.3,480.2,266.3z"/>
	<path d="M521.6,445.8c-0.7-2-1.2-3.9-1.5-5.7l-2.5-12.5h-2.2l-3.3,1.1V465L521.6,445.8z"/>
	<path d="M624,642H381.5c-0.7,19.8-14.7,32-32.7,32H288c-18.7,0-33-17.5-32.8-32H16c-8.8,0-16,7.2-16,16v16c0,35.2,28.8,64,64,64
		h512c35.2,0,64-28.8,64-64v-16C640,649.2,632.8,642,624,642z"/>
	<path d="M556.6,340.9c-17-2-21-12.3-21.9-18.2c-0.5-3.5-0.2-7.6,1.6-11.5c-8.6,9-13.7,21.5-13.7,34.5c0,6.8,0.5,13.5,1,20.3
		L512,347.6v64.9l0.8-0.3h17.3l5,24.9c1.1,5.3,8.3,28.9,33.4,28.9c2.7,0,5.2-0.3,7.5-0.8V341.3c-2.8,0.2-5.4,0.2-7.5,0.2
		C565.4,341.5,560.8,341.4,556.6,340.9z"/>
	<path d="M531.9,468.4l8.5,25.4c4.5,13.4-2.8,28-16.2,32.5l-7.3,2.4c-1.6,0.5-3.2,0.9-4.9,1.1V546H128V290h318.9v-16
		c0-14.2,11.5-25.7,25.7-25.7h7.7c14.2,0,25.7,11.5,25.7,25.7v16h6.1v23.7l0.3,0.4c2.7-5.2,6.1-10.1,10-14.4
		c4.4-4.8,9.3-8.8,14.7-12l0-28.8c0.2-12.6-2.3-23.6-6.6-32.8c-0.8,0-1.6-0.1-2.4-0.1H427.3L402,251.4L376.6,226H112
		c-26.4,0-48,21.6-48,48v336h512V483.5c-2.4,0.3-4.9,0.5-7.5,0.5C554.2,484,541.4,478.5,531.9,468.4z"/>
	<polygon class="st1" points="512,465.7 512,465 511.9,465.2 	"/>
</g>
<g>
	<path d="M371.2,28.8v23.1c64.5-1.5,86.3,85.5,34.2,135.3c0,0-19.7,19.7-19.7,19.7l16.4,16.4l41.1-41.1
		c46.4-36.5,115.2,8.7,113.9,77.2v39.1c-20.5,5.5-34.7,25.5-34.7,47.2c0,6.8,0.5,13.5,1,20.3l-35.5-56.9V274c0-4.2-3.4-7.7-7.7-7.7
		h-7.7c-4.2,0-7.7,3.4-7.7,7.7v37.3c0,2.9,0.8,5.7,2.3,8.1l29.2,46.7h-22.6l-23-34.6c-2.4-3.5-7.1-4.5-10.6-2.1l-6.4,4.3
		c-3.5,2.4-4.5,7.1-2.1,10.6l25.3,38c2.8,4.3,7.6,6.8,12.8,6.8h37.4L474,400.9c-3.2,1.1-6,3.2-7.9,6.1l-25.7,38.6
		c-2.4,3.5-1.4,8.3,2.1,10.6l6.4,4.3c3.5,2.4,8.3,1.4,10.6-2.1l24.3-36.4l29-9.7h17.3l5,24.9c1.1,5.3,8.3,28.9,33.4,28.9
		c25.1,0,32.4-23.6,33.4-28.9l5-24.9h17.3l29,9.7l24.3,36.4c2.4,3.5,7.1,4.5,10.6,2.1l6.4-4.3c3.5-2.4,4.5-7.1,2.1-10.6L671,406.9
		c-1.9-2.8-4.7-5-7.9-6.1L630,389.2h37.4c5.1,0,9.9-2.6,12.8-6.8l25.3-38c2.4-3.5,1.4-8.3-2.1-10.6l-6.4-4.3
		c-3.5-2.4-8.3-1.4-10.6,2.1l-23,34.6h-22.6l29.2-46.7c1.5-2.4,2.3-5.3,2.3-8.1V274c0-4.2-3.4-7.7-7.7-7.7h-7.7
		c-4.2,0-7.7,3.4-7.7,7.7v35.1L613.6,366c0.5-6.7,1-13.5,1-20.3c0-21.5-14-41.4-34.3-47.1v-39.2c-1.3-68.5,67.5-113.8,113.9-77.2
		l41.1,41.1l16.4-16.4L732,187.2c-52-49.8-30.3-136.8,34.2-135.3V28.8L371.2,28.8z M540.8,51.9l-30.5,30.5
		c-0.7-5.7-2.2-11.3-4.5-16.9c-2-4.9-4.6-9.5-7.7-13.6H540.8z M476.4,116.3l-19.6,19.6c4-32.9-5.3-62-26.5-83.9h23.4
		C484.5,52.4,499.1,95.3,476.4,116.3z M557.2,186.8c-12.2-16.1-27.8-27.1-42.9-33.4c-11.6-4.8-23.5-7.2-35-7.3
		c0,0,13.5-13.5,13.5-13.5c25.5-24.5,64.8-5.3,64.3,26.4V186.8z M557.2,111.4c-8.6-6.7-19.8-11.2-30.6-12.4l30.6-30.6V111.4z
		 M639.3,51.9c-6.5,8.6-10.9,19.9-12.2,30.5l-30.5-30.5H639.3z M580.3,68.3l30.6,30.6c-10.8,1.2-22.1,5.8-30.6,12.4V68.3z
		 M623.2,153.4c-15.1,6.2-30.7,17.3-42.9,33.4v-27.7c-0.5-31.8,38.8-50.9,64.3-26.5c0,0,0,0,0,0c0,0,13.5,13.5,13.5,13.5
		C646.7,146.2,634.8,148.6,623.2,153.4z M687.3,81.9c-6.2,15.1-9.4,33.9-6.7,53.9L661,116.3c-22.7-21-8-63.9,22.7-64.3
		c0,0,23.4,0,23.4,0C698.9,60.1,692.2,70.2,687.3,81.9z"/>
	<path d="M511.9,465.2l9.7-19.5c-0.7-2-1.2-3.9-1.5-5.7l-2.5-12.5h-2.2l-12.4,4.2l-13,26.1c-1.8,3.6-2.1,7.9-0.8,11.7l12.4,37.3
		c1.3,4,5.7,6.2,9.7,4.9l7.3-2.4c4-1.3,6.2-5.7,4.9-9.7L511.9,465.2z"/>
	<path d="M634.2,431.7l-12.4-4.2h-2.2l-2.5,12.5c-0.3,1.7-0.9,3.6-1.5,5.7l9.7,19.5l-11.4,34.3c-1.3,4,0.8,8.4,4.9,9.7l7.3,2.4
		c4,1.3,8.4-0.8,9.7-4.9l12.4-37.3c1.3-3.9,1-8.1-0.8-11.7L634.2,431.7z"/>
</g>
</svg>
