<?xml version="1.0" encoding="utf-8"?>
<!-- Generator: Adobe Illustrator 24.3.0, SVG Export Plug-In . SVG Version: 6.00 Build 0)  -->
<svg version="1.1" id="Layer_1" focusable="false" xmlns="http://www.w3.org/2000/svg" xmlns:xlink="http://www.w3.org/1999/xlink"
	 x="0px" y="0px" viewBox="0 0 800.1 738" style="enable-background:new 0 0 800.1 738;" xml:space="preserve">
<path d="M624,642H381.5c-0.7,19.8-14.7,32-32.7,32H288c-18.7,0-33-17.5-32.8-32H16c-8.8,0-16,7.2-16,16v16c0,35.2,28.8,64,64,64h512
	c35.2,0,64-28.8,64-64v-16C640,649.2,632.8,642,624,642z M576,274c0-26.4-21.6-48-48-48H112c-26.4,0-48,21.6-48,48v336h512V274z
	 M512,546H128V290h384V546z"/>
<g>
	<path d="M540.3,9.3l3,29.2l-22.4,19c-1.3,1.1-1.9,2.9-1.5,4.6c0.4,1.7,1.8,3,3.4,3.3l28.7,6.2l11.2,27.2c0.7,1.6,2.2,2.7,3.9,2.8
		c0.1,0,0.2,0,0.3,0c1.6,0,3.1-0.9,3.9-2.3L585.6,74l29.3-2.2c1.7-0.1,3.2-1.2,3.9-2.8c0.6-1.6,0.3-3.4-0.8-4.7l-19.6-21.9l6.9-28.5
		c0.4-1.7-0.2-3.4-1.5-4.6c-0.8-0.7-1.9-1.1-2.9-1.1c-0.6,0-1.2,0.1-1.8,0.4l-26.9,11.9L547.2,5c-0.7-0.5-1.6-0.7-2.4-0.7
		c-0.8,0-1.7,0.2-2.4,0.7C540.9,5.9,540.1,7.6,540.3,9.3z"/>
	<g>
		<path d="M654.7,262.3c-6.5-9.1-9.3-20.6-7.3-32.1l3.9-23l-16.7-16.3c-0.3-0.2-0.5-0.5-0.7-0.8c-59.6,49.7-94.5,113.3-114.7,175.6
			v127.5C556.2,361.6,612.7,295.2,654.7,262.3z"/>
		<path d="M405.6,147.4c-0.4,0.1-0.8,0.2-1.2,0.3l-38.5,8.6L351,193c-0.3,0.7-0.6,1.3-0.9,2c14.9,21,28,47.5,39.5,76.8h50
			C429.8,221.3,417.7,180.2,405.6,147.4z"/>
		<path d="M654.5,425.7c-42,11.2-105.3,39.9-125.5,112.4c-1.1,3.9,0.8,8.1,4.5,9.8c3.7,1.7,8.1,0.5,10.4-2.8
			c22-32,61.7-74.2,120.8-82.8c0-0.1,0.1-0.2,0.1-0.3l3.1-8.8l-5.5-7.5C658,439.7,655.3,432.8,654.5,425.7z"/>
		<path d="M799.9,158.9c-0.5-1.6-2-2.8-3.7-3.1l-42.9-6.2l-19.2-38.9c-0.8-1.5-2.3-2.5-4.1-2.5c-1.7,0-3.3,1-4.1,2.5l-19.2,38.9
			l-42.9,6.2c-1.7,0.2-3.1,1.4-3.7,3.1c-0.5,1.6-0.1,3.4,1.1,4.6l31.1,30.3l-7.3,42.8c-0.3,1.7,0.4,3.4,1.8,4.4
			c0.8,0.6,1.7,0.9,2.7,0.9c0.7,0,1.4-0.2,2.1-0.5l38.4-20.2l38.4,20.2c0.7,0.3,1.4,0.5,2.1,0.5c0.9,0,1.9-0.3,2.7-0.9
			c1.4-1,2.1-2.7,1.8-4.4l-7.3-42.8l31.1-30.3C800,162.4,800.5,160.6,799.9,158.9z"/>
		<path d="M307.5,179.3c0.8,1.4,2.3,2.2,3.9,2.2c0.1,0,0.2,0,0.3,0c1.7-0.1,3.2-1.2,3.9-2.8l22.2-55.3l58.1-13
			c1.7-0.4,3-1.7,3.4-3.4c0.4-1.7-0.2-3.4-1.5-4.5l-45.7-38.2L357.8,5c0.2-1.7-0.7-3.4-2.1-4.3c-0.7-0.4-1.6-0.7-2.4-0.7
			c-0.8,0-1.7,0.2-2.4,0.7l-50.5,31.6L245.7,8.7c-0.6-0.3-1.2-0.4-1.8-0.4c-1.1,0-2.1,0.4-2.9,1.1c-1.3,1.1-1.9,2.9-1.5,4.6
			L254,71.7l-39.4,44.7c-1.1,1.3-1.4,3.1-0.8,4.7c0.7,1.6,2.2,2.7,3.9,2.8l59.4,4.1L307.5,179.3z"/>
		<path d="M788,431.7l-27.9-9.1l-8.4-28.2c-0.5-1.7-1.9-2.9-3.6-3.2c-0.3,0-0.5-0.1-0.8-0.1c-1.4,0-2.8,0.7-3.7,1.9l-17.3,23.8
			l-29.4-0.7c0,0-0.1,0-0.1,0c-1.7,0-3.2,0.9-4,2.4c-0.8,1.5-0.7,3.4,0.3,4.8l17.3,23.8l-9.8,27.7c-0.6,1.6-0.2,3.4,1,4.7
			c0.9,0.9,2,1.4,3.2,1.4c0.5,0,0.9-0.1,1.4-0.2l27.9-9.1l23.3,17.9c0.8,0.6,1.8,0.9,2.8,0.9c0.7,0,1.4-0.2,2-0.5
			c1.5-0.8,2.5-2.3,2.5-4.1l0-29.4l24.2-16.7c1.4-1,2.2-2.7,1.9-4.4C790.9,433.6,789.7,432.2,788,431.7z"/>
		<path d="M531.2,120.6c-1.5-2.3-2.8-4.7-3.9-7.3l-3.5-8.6l-9.1-2c-6.8-1.5-12.9-4.5-18-8.6c-14,37.1-23.9,93.7-15.4,177.6H492
			C496.7,229.6,507.4,169,531.2,120.6z"/>
	</g>
</g>
</svg>
