<?xml version="1.0" encoding="utf-8"?>
<!-- Generator: Adobe Illustrator 23.0.3, SVG Export Plug-In . SVG Version: 6.00 Build 0)  -->
<svg version="1.1" xmlns="http://www.w3.org/2000/svg" xmlns:xlink="http://www.w3.org/1999/xlink" x="0px" y="0px"
	 viewBox="0 0 600 600" style="enable-background:new 0 0 600 600;" xml:space="preserve">
<style type="text/css">
	.st0{display:none;}
	.st1{display:inline;fill:#9E1212;}
	.st2{fill:#FFFFFF;}
	.st3{fill:#3DBF1D;}
	.st4{fill:#E8A42A;}
	.st5{fill:#FFFFFF;stroke:#E8A42A;stroke-width:5;stroke-miterlimit:10;}
	.st6{fill:#FF353A;}
	.st7{fill:#FFFFFF;stroke:#FF353A;stroke-width:5;stroke-miterlimit:10;}
</style>
<g id="Layer_1">
	<g class="st0">
		<rect class="st1" width="600" height="600"/>
	</g>
	<path class="st2" d="M300,51.7c137.1,0,248.3,111.2,248.3,248.3S437.1,548.3,300,548.3S51.7,437.1,51.7,300S162.9,51.7,300,51.7
		 M300,0C134.6,0,0,134.6,0,300s134.6,300,300,300s300-134.6,300-300S465.4,0,300,0L300,0z"/>
	<g>
		<circle class="st2" cx="300" cy="300" r="248.3"/>
		<path class="st3" d="M300,77.6c122.6,0,222.4,99.8,222.4,222.4S422.6,522.4,300,522.4S77.6,422.6,77.6,300S177.4,77.6,300,77.6
			 M300,51.7C162.9,51.7,51.7,162.9,51.7,300S162.9,548.3,300,548.3S548.3,437.1,548.3,300S437.1,51.7,300,51.7L300,51.7z"/>
	</g>
	<path class="st3" d="M302.6,444.8c-51.2,0-102.5-19.5-141.5-58.5l-17.7-17.7c-5.1-5.1-5.1-13.2,0-18.3c5.1-5.1,13.2-5,18.3,0
		l17.7,17.7c32.9,32.9,76.7,51,123.2,51s90.3-18.1,123.2-51l17.7-17.7c5.1-5,13.2-5,18.3,0s5.1,13.2,0,18.3l-17.7,17.7
		C405.1,425.3,353.8,444.8,302.6,444.8z"/>
	<g>
		<circle class="st3" cx="406" cy="266.4" r="25.9"/>
		<path class="st3" d="M406,300c-18.5,0-33.6-15.1-33.6-33.6c0-18.5,15.1-33.6,33.6-33.6s33.6,15.1,33.6,33.6
			C439.7,284.9,424.6,300,406,300z M406,248.3c-10,0-18.1,8.1-18.1,18.1s8.1,18.1,18.1,18.1s18.1-8.1,18.1-18.1S416,248.3,406,248.3
			z"/>
	</g>
	<g>
		<circle class="st3" cx="204.3" cy="266.4" r="25.9"/>
		<path class="st3" d="M204.3,300c-18.5,0-33.6-15.1-33.6-33.6c0-18.5,15.1-33.6,33.6-33.6s33.6,15.1,33.6,33.6
			C237.9,284.9,222.8,300,204.3,300z M204.3,248.3c-10,0-18.1,8.1-18.1,18.1s8.1,18.1,18.1,18.1s18.1-8.1,18.1-18.1
			S214.3,248.3,204.3,248.3z"/>
	</g>
	<g>
		<circle class="st2" cx="920" cy="214" r="48"/>
		<path class="st4" d="M920,171c23.7,0,43,19.3,43,43s-19.3,43-43,43s-43-19.3-43-43S896.3,171,920,171 M920,166
			c-26.5,0-48,21.5-48,48s21.5,48,48,48s48-21.5,48-48S946.5,166,920,166L920,166z"/>
	</g>
	<path class="st2" d="M920,166c26.5,0,48,21.5,48,48s-21.5,48-48,48s-48-21.5-48-48S893.5,166,920,166 M920,156c-32,0-58,26-58,58
		s26,58,58,58s58-26,58-58S952,156,920,156L920,156z"/>
	<path class="st5" d="M891.5,219.5"/>
	<path class="st4" d="M947,236.5c-0.2,0-0.4,0-0.6-0.1l-2.8-0.6c-15-3.5-30.3-3.5-45.3,0l-2.8,0.6c-1.4,0.3-2.7-0.5-3-1.9
		c-0.3-1.3,0.5-2.7,1.9-3l2.8-0.6c15.8-3.6,31.8-3.6,47.6,0l2.8,0.6c1.3,0.3,2.2,1.7,1.9,3C949.2,235.7,948.1,236.5,947,236.5z"/>
	<g>
		<circle class="st4" cx="939.5" cy="207.5" r="5"/>
		<path class="st4" d="M939.5,214c-3.6,0-6.5-2.9-6.5-6.5s2.9-6.5,6.5-6.5s6.5,2.9,6.5,6.5S943.1,214,939.5,214z M939.5,204
			c-1.9,0-3.5,1.6-3.5,3.5s1.6,3.5,3.5,3.5s3.5-1.6,3.5-3.5S941.4,204,939.5,204z"/>
	</g>
	<g>
		<circle class="st4" cx="900.5" cy="207.5" r="5"/>
		<path class="st4" d="M900.5,214c-3.6,0-6.5-2.9-6.5-6.5s2.9-6.5,6.5-6.5s6.5,2.9,6.5,6.5S904.1,214,900.5,214z M900.5,204
			c-1.9,0-3.5,1.6-3.5,3.5s1.6,3.5,3.5,3.5s3.5-1.6,3.5-3.5S902.4,204,900.5,204z"/>
	</g>
	<g>
		<circle class="st2" cx="1061" cy="214" r="48"/>
		<path class="st6" d="M1061,171c23.7,0,43,19.3,43,43s-19.3,43-43,43s-43-19.3-43-43S1037.3,171,1061,171 M1061,166
			c-26.5,0-48,21.5-48,48s21.5,48,48,48s48-21.5,48-48S1087.5,166,1061,166L1061,166z"/>
	</g>
	<g>
		<circle class="st6" cx="1080.5" cy="207.5" r="5"/>
		<path class="st6" d="M1080.5,214c-3.6,0-6.5-2.9-6.5-6.5s2.9-6.5,6.5-6.5s6.5,2.9,6.5,6.5S1084.1,214,1080.5,214z M1080.5,204
			c-1.9,0-3.5,1.6-3.5,3.5s1.6,3.5,3.5,3.5s3.5-1.6,3.5-3.5S1082.4,204,1080.5,204z"/>
	</g>
	<g>
		<circle class="st6" cx="1041.5" cy="207.5" r="5"/>
		<path class="st6" d="M1041.5,214c-3.6,0-6.5-2.9-6.5-6.5s2.9-6.5,6.5-6.5s6.5,2.9,6.5,6.5S1045.1,214,1041.5,214z M1041.5,204
			c-1.9,0-3.5,1.6-3.5,3.5s1.6,3.5,3.5,3.5s3.5-1.6,3.5-3.5S1043.4,204,1041.5,204z"/>
	</g>
	<path class="st2" d="M1061,166c26.5,0,48,21.5,48,48s-21.5,48-48,48s-48-21.5-48-48S1034.5,166,1061,166 M1061,156
		c-32,0-58,26-58,58s26,58,58,58s58-26,58-58S1093,156,1061,156L1061,156z"/>
	<path class="st7" d="M1001,307"/>
	<path class="st6" d="M1081.5,238c-0.2,0-0.5,0-0.7-0.1l-6-1.8c-8.7-2.6-17.9-2.6-26.6,0l-6,1.8c-1.3,0.4-2.7-0.4-3.1-1.7
		c-0.4-1.3,0.4-2.7,1.7-3.1l6-1.8c9.6-2.9,19.8-2.9,29.5,0l6,1.8c1.3,0.4,2.1,1.8,1.7,3.1C1083.6,237.3,1082.6,238,1081.5,238z"/>
</g>
<g id="Layer_2">
</g>
</svg>
