<?xml version="1.0" encoding="utf-8"?>
<!-- Generator: Adobe Illustrator 24.0.1, SVG Export Plug-In . SVG Version: 6.00 Build 0)  -->
<svg version="1.1" id="Layer_1" xmlns="http://www.w3.org/2000/svg" xmlns:xlink="http://www.w3.org/1999/xlink" x="0px" y="0px"
	 viewBox="0 0 512 512" style="enable-background:new 0 0 512 512;" xml:space="preserve">
<style type="text/css">
	.st0{fill:#E6E7E8;}
	.st1{fill:#BF6689;}
	.st2{fill:#96043E;}
	.st3{fill:#FFFFFF;}
	.st4{fill:#5B1647;}
</style>
<g>
	<g>
		<g>
			<path class="st0" d="M496.4,264c0-30.7-22-56.4-51-62.2C426.2,146,382,101.8,326.2,82.6c-5.8-29.1-31.5-51-62.2-51
				s-56.4,22-62.2,51C146,101.8,101.8,146,82.6,201.8c-29.1,5.8-51,31.5-51,62.2s22,56.4,51,62.2c19.2,55.8,63.4,99.9,119.1,119.1
				c5.8,29.1,31.5,51,62.2,51s56.4-22,62.2-51c55.8-19.2,99.9-63.4,119.1-119.1C474.4,320.4,496.4,294.7,496.4,264z M264,369.4
				c-30.5,0-56.1,21.7-62.1,50.4c-42.6-17.1-76.7-51.1-93.7-93.7c28.8-6,50.4-31.6,50.4-62.1s-21.7-56.1-50.4-62.1
				c17.1-42.6,51.1-76.7,93.7-93.7c6,28.8,31.6,50.4,62.1,50.4s56.1-21.7,62.1-50.4c42.6,17.1,76.7,51.1,93.7,93.7
				c-28.8,6-50.4,31.6-50.4,62.1s21.7,56.1,50.4,62.1c-17.1,42.6-51.1,76.7-93.7,93.7C320.1,391.1,294.5,369.4,264,369.4L264,369.4z
				"/>
		</g>
		<g>
			<path class="st0" d="M221.2,249c1,0,2-0.4,2.8-1.2c1.6-1.6,1.6-4.1,0-5.7c-13.8-13.8-13.8-36.4,0-50.2
				c6.7-6.7,15.6-10.4,25.1-10.4c9.5,0,18.4,3.7,25.1,10.4c11.8,11.8,13.7,30.4,4.7,44.3c-1.2,1.9-0.7,4.3,1.2,5.5
				c1.9,1.2,4.3,0.7,5.5-1.2c11-17.1,8.6-39.9-5.8-54.3c-8.2-8.2-19.1-12.7-30.8-12.7c-11.6,0-22.5,4.5-30.8,12.7
				c-17,17-17,44.5,0,61.5C219.2,248.6,220.2,249,221.2,249L221.2,249z"/>
		</g>
		<g>
			<path class="st0" d="M271.4,226.1c0.3,0.1,0.6,0.1,0.9,0.1c1.8,0,3.5-1.3,3.9-3.1c2.1-9.3-0.7-18.8-7.4-25.5
				c-5.2-5.2-12.2-8.1-19.5-8.1s-14.3,2.9-19.5,8.1c-6.7,6.7-9.5,16.2-7.4,25.5c0.5,2.2,2.6,3.5,4.8,3c2.2-0.5,3.5-2.6,3-4.8
				c-1.5-6.6,0.5-13.4,5.3-18.1c3.7-3.7,8.6-5.8,13.9-5.8s10.2,2,13.9,5.8c4.8,4.8,6.7,11.5,5.3,18.1
				C267.9,223.5,269.2,225.6,271.4,226.1z"/>
		</g>
		<g>
			<path class="st0" d="M309.3,255.2c-2-0.2-4,0.1-5.9,0.8c-1.6-5.7-6.4-10.1-12.4-10.6c-4-0.4-7.9,1-10.8,3.7
				c-0.2,0.2-0.4,0.4-0.6,0.6c-2.6-2.6-6.2-4.3-10.1-4.3c-2,0-3.9,0.4-5.7,1.2v-28.7c0-7.7-5.8-14.2-13.1-14.8c-4-0.4-8,1-11,3.7
				c-3,2.7-4.7,6.6-4.7,10.6v38.2c-1.6-0.8-3.4-1.3-5.3-1.4c-4-0.2-7.8,1.2-10.6,3.9c-2.8,2.7-4.5,6.5-4.5,10.4v33.1
				c0,29.7,24.1,53.8,53.8,53.8c29.7,0,53.8-24.1,53.8-53.8v-31.7C322.3,262.1,316.6,255.7,309.3,255.2L309.3,255.2z"/>
		</g>
	</g>
	<g>
		<g id="XMLID_1_">
			<g>
				<g>
					<g>
						<path class="st1" d="M248,435.8c-103.6,0-187.8-84.2-187.8-187.8S144.4,60.2,248,60.2S435.8,144.4,435.8,248
							S351.6,435.8,248,435.8L248,435.8z M248,76.2c-94.7,0-171.8,77.1-171.8,171.8S153.3,419.8,248,419.8S419.8,342.7,419.8,248
							S342.7,76.2,248,76.2L248,76.2z"/>
					</g>
				</g>
			</g>
		</g>
		<g>
			<g>
				<circle class="st2" cx="248" cy="79.1" r="59.5"/>
				<circle class="st2" cx="248" cy="416.9" r="59.5"/>
			</g>
			<g>
				<circle class="st2" cx="416.9" cy="248" r="59.5"/>
				<path class="st3" d="M426.5,226.6c-8.6-8.6-22.4-8.6-31,0s-8.6,22.4,0,31c8.6,8.6,22.4,8.6,31,0S435,235.1,426.5,226.6
					L426.5,226.6z"/>
			</g>
			<path class="st3" d="M251.2,400.9l-0.7,0.7c-1.4,1.4-3.7,1.4-5.2,0l-0.7-0.7c-6.1-6.1-16-7.1-22.7-1.6
				c-7.7,6.3-8.1,17.7-1.2,24.5l3.7,3.7l18.2,18.2c2.9,2.9,7.5,2.9,10.4,0l18.2-18.2l3.7-3.7c6.8-6.8,6.4-18.2-1.2-24.5
				C267.3,393.8,257.4,394.8,251.2,400.9L251.2,400.9z"/>
			<g>
				<circle class="st2" cx="79.1" cy="248" r="59.5"/>
				<g>
					<path class="st3" d="M31.6,248c0-30.8,23.5-56.2,53.5-59.2c-2-0.2-4-0.3-6-0.3c-32.9,0-59.5,26.6-59.5,59.5
						s26.6,59.5,59.5,59.5c2,0,4-0.1,6-0.3C55.1,304.2,31.6,278.8,31.6,248L31.6,248z"/>
				</g>
				<path class="st3" d="M96,230.3l-23.2,23.2l-10.6-10.6c-3.7-3.7-9.8-3.7-13.5,0s-3.7,9.8,0,13.5L59.3,267l9.1,9.1
					c2.4,2.4,6.4,2.4,8.8,0l9.1-9.1l23.2-23.2c3.7-3.7,3.7-9.8,0-13.5C105.8,226.6,99.7,226.6,96,230.3L96,230.3z"/>
			</g>
			<g>
				<path class="st3" d="M278.5,73.1c-6.6-5.7-17.8-13.5-30.5-13.5s-23.9,7.7-30.5,13.5c-3.7,3.2-3.7,8.9,0,12.1
					c6.5,5.7,17.8,13.5,30.5,13.5c12.7,0,23.9-7.7,30.5-13.5C282.1,81.9,282.1,76.3,278.5,73.1z"/>
				<circle class="st1" cx="248" cy="79.1" r="15"/>
				<circle class="st3" cx="254.9" cy="76" r="4.9"/>
			</g>
			<g>
				<path class="st1" d="M293,243.2c-3.7-0.3-7,1.4-9,4.2H284v-3.4c0-5.3-3.9-10.2-9.2-10.6c-6-0.5-11,4.2-11,10.1
					c0-5.6-4.5-10.1-10.1-10.1c-4.6,0-8.5,3.1-9.7,7.3v-38.8c0-5.5-4-10.4-9.4-10.9c-6.1-0.5-11.3,4.3-11.3,10.3v49.4
					c-1-4.6-4.7-8.4-9.6-8.6c-6-0.3-10.9,4.4-10.9,10.3v33.1c0,27.5,22.3,49.8,49.8,49.8s49.8-22.3,49.8-49.8v-31.7
					C302.3,248.3,298.3,243.6,293,243.2z"/>
				<g>
					<path class="st4" d="M103.1,132.6c1.2,0,2.3-0.5,3.1-1.5c3.4-4.2,7.1-8.2,10.9-12.1c1.6-1.6,1.5-4.1,0-5.7
						c-1.6-1.5-4.1-1.5-5.7,0c-4,4-7.8,8.2-11.4,12.6c-1.4,1.7-1.2,4.2,0.5,5.6C101.3,132.3,102.2,132.6,103.1,132.6z"/>
					<path class="st4" d="M480.4,248c0-30.8-22-56.5-51.1-62.3C410.1,130,366,85.9,310.3,66.7c-5.8-29.1-31.5-51.1-62.3-51.1
						c-30.8,0-56.5,22-62.3,51.1c-22.6,7.8-43.7,19.7-62.1,35.4c-1.7,1.4-1.9,4-0.4,5.6c1.4,1.7,4,1.9,5.6,0.4
						C145.5,94,164.4,83,184.7,75.6c-0.1,1.2-0.2,2.3-0.2,3.5c0,1.7,0.1,3.3,0.3,5c-46.1,17.9-82.9,54.6-100.7,100.7
						c-1.6-0.1-3.3-0.3-5-0.3c-1.2,0-2.4,0.1-3.5,0.2c5.4-14.6,12.5-28.6,21.6-41.6c1.3-1.8,0.8-4.3-1-5.6c-1.8-1.3-4.3-0.8-5.6,1
						c-10.3,14.7-18.3,30.6-24,47.3c-29,5.8-51,31.5-51,62.2c0,30.8,22,56.5,51.1,62.3c19.2,55.7,63.3,99.9,119.1,119
						c5.8,29.1,31.5,51.1,62.3,51.1s56.5-22,62.3-51.1c55.7-19.2,99.9-63.3,119.1-119C458.4,304.5,480.4,278.8,480.4,248L480.4,248z
						 M420.5,184.7c-1.2-0.1-2.4-0.2-3.6-0.2c-1.7,0-3.3,0.1-5,0.3c-17.9-46.1-54.6-82.9-100.7-100.7c0.1-1.6,0.3-3.3,0.3-5
						c0-1.2-0.1-2.4-0.2-3.5C361.8,94.2,401.9,134.2,420.5,184.7L420.5,184.7z M248,23.6c30.6,0,55.5,24.9,55.5,55.5
						s-24.9,55.5-55.5,55.5s-55.5-24.9-55.5-55.5S217.4,23.6,248,23.6z M185.9,92.2c6.1,28.7,31.6,50.4,62.1,50.4
						c30.5,0,56.1-21.6,62.1-50.4c42.6,17.1,76.6,51.1,93.7,93.7c-28.7,6.1-50.4,31.6-50.4,62.1c0,30.5,21.6,56.1,50.4,62.1
						c-17.1,42.6-51.1,76.6-93.7,93.7c-6.1-28.7-31.6-50.4-62.1-50.4s-56.1,21.6-62.1,50.4c-42.6-17.1-76.6-51.1-93.7-93.7
						c28.7-6.1,50.4-31.6,50.4-62.1s-21.6-56.1-50.4-62.1C109.3,143.3,143.3,109.3,185.9,92.2L185.9,92.2z M23.6,248
						c0-30.6,24.9-55.5,55.5-55.5s55.5,24.9,55.5,55.5s-24.9,55.5-55.5,55.5S23.6,278.6,23.6,248z M75.6,311.3
						c1.2,0.1,2.3,0.2,3.5,0.2c1.7,0,3.3-0.1,5-0.3c17.9,46.1,54.6,82.8,100.7,100.7c-0.1,1.6-0.3,3.3-0.3,5c0,1.2,0.1,2.4,0.2,3.6
						C134.2,401.9,94.2,361.8,75.6,311.3z M248,472.4c-30.6,0-55.5-24.9-55.5-55.5s24.9-55.5,55.5-55.5s55.5,24.9,55.5,55.5
						S278.6,472.4,248,472.4z M311.3,420.5c0.1-1.2,0.2-2.4,0.2-3.6c0-1.7-0.1-3.3-0.3-5c46.1-17.9,82.9-54.6,100.7-100.7
						c1.6,0.1,3.3,0.3,5,0.3c1.2,0,2.4-0.1,3.5-0.2C401.8,361.8,361.8,401.9,311.3,420.5L311.3,420.5z M416.9,303.5
						c-30.6,0-55.5-24.9-55.5-55.5s24.9-55.5,55.5-55.5s55.5,24.9,55.5,55.5S447.5,303.5,416.9,303.5z"/>
					<path class="st4" d="M431.9,257.3c3.2-4.4,5-9.7,5-15.3c0-6.9-2.7-13.4-7.6-18.3s-11.4-7.6-18.3-7.6s-13.4,2.7-18.3,7.6
						c-4.9,4.9-7.6,11.4-7.6,18.3s2.7,13.4,7.6,18.3S404,268,411,268c5.6,0,10.9-1.8,15.3-5l15.7,15.7c0.8,0.8,1.8,1.2,2.8,1.2
						s2-0.4,2.8-1.2c1.6-1.6,1.6-4.1,0-5.7L431.9,257.3z M398.3,254.7c-3.4-3.4-5.3-7.9-5.3-12.7s1.9-9.3,5.3-12.7
						c3.4-3.4,7.9-5.2,12.7-5.2s9.3,1.9,12.7,5.2c3.4,3.4,5.3,7.9,5.3,12.7c0,4.8-1.9,9.3-5.3,12.7c-3.4,3.4-7.9,5.2-12.7,5.2
						S401.7,258.1,398.3,254.7z"/>
					<path class="st4" d="M276.5,396.2c-8.1-6.7-20.4-5.8-28.1,1.9l-0.4,0.4l-0.4-0.4c-7.7-7.7-20-8.5-28.1-1.9
						c-4.5,3.7-7.2,9.1-7.5,14.9c-0.3,5.8,1.9,11.4,6,15.5l22,22c2.2,2.2,5.1,3.3,8,3.3c2.9,0,5.8-1.1,8-3.3l22-22
						c4.1-4.1,6.3-9.7,6-15.5C283.7,405.4,281,399.9,276.5,396.2L276.5,396.2z M272.3,421l-22,22c-1.3,1.3-3.4,1.3-4.7,0l-22-22
						c-2.5-2.5-3.8-6-3.7-9.5c0.2-3.6,1.8-6.8,4.6-9.1c2.2-1.8,4.9-2.7,7.7-2.7c3.5,0,7,1.4,9.6,4l0.7,0.7c2.9,2.9,7.9,2.9,10.8,0
						l0.7-0.7c4.8-4.8,12.4-5.4,17.3-1.3c2.8,2.3,4.4,5.5,4.6,9.1C276.2,415,274.8,418.5,272.3,421L272.3,421z"/>
					<path class="st4" d="M112.3,246.7c2.6-2.6,4-6,4-9.6s-1.4-7-4-9.6c-5.1-5.1-14.1-5.1-19.2,0l-20.4,20.4l-7.7-7.7
						c-5.3-5.3-13.9-5.3-19.2,0c-5.3,5.3-5.3,13.9,0,19.2l19.7,19.7c1.9,1.9,4.5,3,7.2,3c2.7,0,5.3-1.1,7.2-3L112.3,246.7z
						 M71.2,273.3l-19.7-19.7c-2.2-2.2-2.2-5.7,0-7.9c1.1-1.1,2.5-1.6,3.9-1.6c1.4,0,2.8,0.5,3.9,1.6L70,256.3
						c0.8,0.8,1.8,1.2,2.8,1.2s2.1-0.4,2.8-1.2l23.2-23.2c1.1-1,2.4-1.6,3.9-1.6h0c1.5,0,2.9,0.6,3.9,1.6c1.1,1,1.6,2.4,1.6,3.9
						s-0.6,2.9-1.6,3.9l-32.3,32.3C73.5,274.1,72.1,274.1,71.2,273.3L71.2,273.3z"/>
					<path class="st4" d="M248,102.6c13.7,0,25.6-7.9,33.1-14.5c2.6-2.3,4.1-5.6,4.1-9s-1.5-6.8-4.1-9c-7.5-6.6-19.4-14.5-33.1-14.5
						s-25.6,7.9-33.1,14.5c-2.6,2.3-4.1,5.6-4.1,9c0,3.5,1.5,6.8,4.1,9C222.4,94.7,234.3,102.6,248,102.6z M220.2,76.1
						c6.5-5.7,16.6-12.5,27.8-12.5c11.2,0,21.3,6.8,27.8,12.5c0.9,0.8,1.4,1.8,1.4,3s-0.5,2.2-1.4,3c-6.5,5.7-16.6,12.5-27.8,12.5
						s-21.3-6.8-27.8-12.5c-0.9-0.8-1.4-1.8-1.4-3C218.8,77.9,219.3,76.9,220.2,76.1z"/>
					<path class="st4" d="M205.2,233c1,0,2-0.4,2.8-1.2c1.6-1.6,1.6-4.1,0-5.7c-13.8-13.8-13.8-36.4,0-50.2
						c6.7-6.7,15.6-10.4,25.1-10.4c9.5,0,18.4,3.7,25.1,10.4c11.8,11.8,13.7,30.4,4.7,44.3c-1.2,1.9-0.7,4.3,1.2,5.5
						c1.9,1.2,4.3,0.7,5.5-1.2c11-17.1,8.6-39.9-5.8-54.3c-8.2-8.2-19.1-12.7-30.8-12.7c-11.6,0-22.5,4.5-30.8,12.7
						c-17,17-17,44.5,0,61.5C203.2,232.6,204.2,233,205.2,233L205.2,233z"/>
					<path class="st4" d="M255.4,210.1c0.3,0.1,0.6,0.1,0.9,0.1c1.8,0,3.5-1.3,3.9-3.1c2.1-9.3-0.7-18.8-7.4-25.5
						c-5.2-5.2-12.2-8.1-19.5-8.1s-14.3,2.9-19.5,8.1c-6.7,6.7-9.5,16.2-7.4,25.5c0.5,2.2,2.6,3.5,4.8,3c2.2-0.5,3.5-2.6,3-4.8
						c-1.5-6.6,0.5-13.4,5.3-18.1c3.7-3.7,8.6-5.8,13.9-5.8s10.2,2,13.9,5.8c4.8,4.8,6.7,11.5,5.3,18.1
						C251.9,207.5,253.2,209.6,255.4,210.1L255.4,210.1z"/>
					<path class="st4" d="M264.3,233c-0.2,0.2-0.4,0.4-0.6,0.6c-2.6-2.6-6.2-4.3-10.1-4.3c-2,0-3.9,0.4-5.7,1.2v-28.8
						c0-7.7-5.8-14.2-13.1-14.8c-4-0.4-8,1-11,3.7c-3,2.7-4.7,6.6-4.7,10.6v38.2c-1.6-0.8-3.4-1.3-5.3-1.4c-4-0.2-7.8,1.2-10.6,3.9
						c-2.8,2.7-4.5,6.5-4.5,10.4v33.1c0,29.7,24.1,53.8,53.8,53.8c29.7,0,53.8-24.1,53.8-53.8v-31.7c0-7.6-5.7-14-13-14.6
						c-2-0.2-4,0.1-5.9,0.8c-1.6-5.7-6.4-10.1-12.4-10.6C271.1,228.9,267.2,230.3,264.3,233L264.3,233z M279.9,243.9v2.2v1.2v12.3
						c0,2.2,1.8,4,4,4s4-1.8,4-4v-10.7c1.3-1.2,3-1.9,4.7-1.8c3.2,0.2,5.6,3.1,5.6,6.6v31.7c0,25.3-20.6,45.8-45.8,45.8
						c-25.3,0-45.8-20.6-45.8-45.8v-33.1c0-1.8,0.7-3.4,2-4.6c1.2-1.1,2.7-1.7,4.4-1.7c0.1,0,0.2,0,0.3,0c2.7,0.1,5.1,2.3,5.8,5.2
						v31.5c0,2.2,1.8,4,4,4s4-1.8,4-4v-32.1v-49.4c0-1.8,0.7-3.5,2.1-4.7c1.3-1.2,3.1-1.8,4.9-1.6c3.2,0.3,5.8,3.3,5.8,6.9v38.8
						c0,0,0,0,0,0v19c0,2.2,1.8,4,4,4s4-1.8,4-4v-18.3c0.9-2.4,3.1-4.1,5.7-4.1c3.4,0,6.1,2.8,6.1,6.1v16.2c0,2.2,1.8,4,4,4
						s4-1.8,4-4v-16.2c0-1.7,0.7-3.3,2-4.5c1.3-1.2,2.9-1.7,4.7-1.6C277.5,237.5,279.9,240.5,279.9,243.9L279.9,243.9z"/>
				</g>
			</g>
		</g>
	</g>
</g>
</svg>
