<?xml version="1.0" encoding="utf-8"?>
<!-- Generator: Adobe Illustrator 24.0.1, SVG Export Plug-In . SVG Version: 6.00 Build 0)  -->
<svg version="1.1" id="Layer_1" xmlns="http://www.w3.org/2000/svg" xmlns:xlink="http://www.w3.org/1999/xlink" x="0px" y="0px"
	 viewBox="0 0 512 512" style="enable-background:new 0 0 512 512;" xml:space="preserve">
<style type="text/css">
	.st0{fill:#E6E7E8;}
	.st1{fill:#BF6689;}
	.st2{fill:#FFFFFF;}
	.st3{fill:#96043E;}
	.st4{fill:#5B1647;}
</style>
<g>
	<g>
		<path class="st0" d="M479,350.1c-3-2.4-6.8-3.2-10.5-2.4c-17.1,3.9-35.3,1.8-51.1-5.8l-7.9-3.9V47.6c0-10.7-8.7-19.5-19.5-19.5
			H63.8c-10.7,0-19.5,8.7-19.5,19.5v409.1c0,10.7,8.7,19.5,19.5,19.5h295.6c12,12.1,27.1,20.9,45.3,23.7c0.2,0,0.4,0.1,0.6,0.1
			s0.4,0,0.6-0.1c50.4-8,77.6-60.7,77.6-106.3v-33.8C483.6,355.9,481.9,352.4,479,350.1z"/>
	</g>
	<g>
		<path class="st1" d="M373.9,16.1H47.8c-8.5,0-15.5,6.9-15.5,15.5v409.1c0,8.5,6.9,15.5,15.5,15.5h326.1c8.5,0,15.5-6.9,15.5-15.5
			V31.6C389.4,23,382.5,16.1,373.9,16.1z"/>
		<g>
			<path class="st2" d="M47.8,16.1h12c-8.5,0-15.5,6.9-15.5,15.5v409.1c0,8.5,6.9,15.5,15.5,15.5h-12c-8.5,0-15.5-6.9-15.5-15.5
				V31.6C32.4,23,39.3,16.1,47.8,16.1z"/>
		</g>
		<g>
			<g>
				<path class="st2" d="M342.7,292.9H236.2c-5.5,0-10-4.5-10-10s4.5-10,10-10h106.5c5.5,0,10,4.5,10,10S348.2,292.9,342.7,292.9z"
					/>
			</g>
			<g>
				<path class="st2" d="M186.3,292.9H79.7c-5.5,0-10-4.5-10-10s4.5-10,10-10h106.5c5.5,0,10,4.5,10,10S191.8,292.9,186.3,292.9z"/>
			</g>
			<g>
				<path class="st2" d="M342.7,204.9h-263c-5.5,0-10-4.5-10-10s4.5-10,10-10h263c5.5,0,10,4.5,10,10S348.2,204.9,342.7,204.9z"/>
			</g>
			<g>
				<path class="st2" d="M342.7,98.9h-263c-8.8,0-16-7.2-16-16s7.2-16,16-16h263c8.8,0,16,7.2,16,16S351.5,98.9,342.7,98.9z"/>
			</g>
			<g>
				<path class="st2" d="M342.7,158.9h-263c-8.8,0-16-7.2-16-16s7.2-16,16-16h263c8.8,0,16,7.2,16,16S351.5,158.9,342.7,158.9z"/>
			</g>
			<g>
				<path class="st2" d="M262.7,244.9h-183c-5.5,0-10-4.5-10-10s4.5-10,10-10h183c5.5,0,10,4.5,10,10S268.2,244.9,262.7,244.9z"/>
			</g>
		</g>
		<g>
			<path class="st3" d="M453.4,335.6c-18.1,4.1-37.1,2-53.8-6.1l-10.2-5l-10.2,5c-16.7,8.1-35.7,10.3-53.8,6.1
				c-5.3-1.2-10.3,2.8-10.3,8.2v33.8c0,46.6,28.2,95,74.2,102.3c46-7.3,74.2-55.7,74.2-102.3v-33.8
				C463.6,338.4,458.6,334.4,453.4,335.6L453.4,335.6z"/>
			<g>
				<path class="st4" d="M133,452.1h-22.1c-2.2,0-4,1.8-4,4s1.8,4,4,4H133c2.2,0,4-1.8,4-4S135.2,452.1,133,452.1z"/>
				<path class="st4" d="M79.7,323.9h106.5c2.2,0,4-1.8,4-4s-1.8-4-4-4H79.7c-2.2,0-4,1.8-4,4S77.5,323.9,79.7,323.9z"/>
				<path class="st4" d="M79.7,352.9h106.5c2.2,0,4-1.8,4-4s-1.8-4-4-4H79.7c-2.2,0-4,1.8-4,4S77.5,352.9,79.7,352.9z"/>
				<path class="st4" d="M79.7,381.9h106.5c2.2,0,4-1.8,4-4s-1.8-4-4-4H79.7c-2.2,0-4,1.8-4,4S77.5,381.9,79.7,381.9z"/>
				<path class="st4" d="M79.7,410.9h106.5c2.2,0,4-1.8,4-4s-1.8-4-4-4H79.7c-2.2,0-4,1.8-4,4S77.5,410.9,79.7,410.9z"/>
				<path class="st4" d="M236.2,323.9h106.5c2.2,0,4-1.8,4-4s-1.8-4-4-4H236.2c-2.2,0-4,1.8-4,4S233.9,323.9,236.2,323.9
					L236.2,323.9z"/>
				<path class="st4" d="M463,334.1c-3-2.4-6.8-3.2-10.5-2.4c-17.1,3.9-35.3,1.9-51.1-5.8l-7.9-3.9V31.6c0-10.7-8.7-19.5-19.5-19.5
					H47.8c-10.7,0-19.5,8.7-19.5,19.5v409.1c0,10.7,8.7,19.5,19.5,19.5h47.4c2.2,0,4-1.8,4-4s-1.8-4-4-4H47.8
					c-6.3,0-11.5-5.1-11.5-11.5V31.6c0-6.3,5.1-11.5,11.5-11.5h326.1c6.3,0,11.5,5.1,11.5,11.5V322l-7.9,3.9
					c-15.8,7.7-34,9.8-51.1,5.8c-3.7-0.9-7.5,0-10.5,2.4c-3,2.4-4.7,5.9-4.7,9.7v1.2h-75c-2.2,0-4,1.8-4,4s1.8,4,4,4h75v21h-75
					c-2.2,0-4,1.8-4,4s1.8,4,4,4h75.1c0.3,6.9,1.1,14,2.6,21h-77.7c-2.2,0-4,1.8-4,4s1.8,4,4,4h79.7c4.1,14.9,11,29.2,20.5,41.2
					H148.5c-2.2,0-4,1.8-4,4s1.8,4,4,4h194.9c12,12.1,27.1,20.9,45.3,23.7c0.2,0,0.4,0.1,0.6,0.1s0.4,0,0.6-0.1
					c50.4-8,77.6-60.7,77.6-106.3v-33.8C467.6,339.9,465.9,336.4,463,334.1L463,334.1z M459.6,377.6c0,42-24.6,90.6-70.2,98.3
					c-45.6-7.7-70.2-56.2-70.2-98.3v-33.8c0-1.3,0.6-2.6,1.7-3.4c0.8-0.6,1.7-1,2.7-1c0.3,0,0.7,0,1,0.1c18.9,4.3,39,2,56.4-6.4
					l8.4-4.1l8.4,4.1c17.5,8.5,37.5,10.8,56.4,6.4c1.3-0.3,2.7,0,3.7,0.8c1.1,0.8,1.7,2.1,1.7,3.4L459.6,377.6L459.6,377.6z"/>
			</g>
		</g>
		<g>
			<path class="st2" d="M388.2,440.9c-2.2,0-4.4-0.8-6.1-2.2l-30.6-25.3c-4.1-3.4-4.6-9.4-1.3-13.4c3.4-4.1,9.4-4.6,13.4-1.3
				l22.5,18.6l33.4-49.1c3-4.4,8.9-5.5,13.3-2.5c4.4,3,5.5,8.9,2.5,13.3l-39.3,57.8c-1.5,2.2-3.9,3.7-6.6,4.1
				C389.1,440.9,388.7,440.9,388.2,440.9z"/>
		</g>
	</g>
</g>
</svg>
