<?xml version="1.0" encoding="utf-8"?>
<!-- Generator: Adobe Illustrator 24.0.1, SVG Export Plug-In . SVG Version: 6.00 Build 0)  -->
<svg version="1.1" id="Layer_1" xmlns="http://www.w3.org/2000/svg" xmlns:xlink="http://www.w3.org/1999/xlink" x="0px" y="0px"
	 viewBox="0 0 512 512" style="enable-background:new 0 0 512 512;" xml:space="preserve">
<style type="text/css">
	.st0{fill:#E6E7E8;}
	.st1{fill:#BF6689;}
	.st2{fill:#FFFFFF;}
	.st3{fill:#96043E;}
	.st4{fill:#5B1647;}
</style>
<g>
	<g>
		<g>
			<path class="st0" d="M275,256h196.8c2.2,0,4-1.8,4-4c0-110.7-90.1-200.8-200.8-200.8c-2.2,0-4,1.8-4,4V252
				C271,254.2,272.8,256,275,256z"/>
		</g>
		<g>
			<path class="st0" d="M249,51.1C138.3,51.1,48.1,141.2,48.1,252c0,2.2,1.8,4,4,4H249c2.2,0,4-1.8,4-4V55.1
				C253,52.9,251.2,51.1,249,51.1z"/>
		</g>
		<g>
			<path class="st0" d="M249,272H52.1c-2.2,0-4,1.8-4,4c0,110.8,90.1,200.9,200.9,200.9c2.2,0,4-1.8,4-4V276
				C253,273.8,251.2,272,249,272z"/>
		</g>
		<g>
			<path class="st0" d="M471.9,272H275c-2.2,0-4,1.8-4,4v196.9c0,2.2,1.8,4,4,4c110.7,0,200.8-90.1,200.8-200.9
				C475.9,273.8,474.1,272,471.9,272z"/>
		</g>
	</g>
	<g>
		<g>
			<path class="st1" d="M459.9,236H263V39.1C371.7,39.1,459.9,127.3,459.9,236z"/>
		</g>
		<g>
			<g>
				<g>
					<path class="st1" d="M237,39.1V236H40.1C40.1,127.3,128.3,39.1,237,39.1z"/>
				</g>
			</g>
			<g>
				<path class="st2" d="M237,39.5v-0.4C128.3,39.1,40.1,127.3,40.1,236h12C52.1,131.3,133.9,45.7,237,39.5z"/>
			</g>
			<path class="st1" d="M237,260v196.9c-108.7,0-196.9-88.1-196.9-196.9H237z"/>
		</g>
		<path class="st1" d="M459.9,260c0,108.8-88.1,196.9-196.8,196.9V260H459.9z"/>
		<g>
			<g>
				<path class="st3" d="M351.3,147.6c-5.5,3.8-12.1,6.1-19.3,6.1s-13.8-2.3-19.3-6.1c-16.2,4.8-28.1,19.7-28.1,37.5v20.5
					c0,4.4,3.6,8,8,8h78.7c4.4,0,8-3.6,8-8v-20.5C379.4,167.3,367.5,152.4,351.3,147.6L351.3,147.6z"/>
				<ellipse class="st2" cx="332.1" cy="120.1" rx="33.7" ry="33.7"/>
			</g>
			<g>
				<path class="st3" d="M187.3,147.6c-5.5,3.8-12.1,6.1-19.3,6.1s-13.8-2.3-19.3-6.1c-16.2,4.8-28.1,19.7-28.1,37.5v20.5
					c0,4.4,3.6,8,8,8h78.7c4.4,0,8-3.6,8-8v-20.5C215.4,167.3,203.5,152.4,187.3,147.6z"/>
				<ellipse class="st2" cx="168.1" cy="120.1" rx="33.7" ry="33.7"/>
			</g>
			<g>
				<path class="st3" d="M351.3,339.6c-5.5,3.8-12.1,6.1-19.3,6.1s-13.8-2.3-19.3-6.1c-16.2,4.8-28.1,19.7-28.1,37.5v20.5
					c0,4.4,3.6,8,8,8h78.7c4.4,0,8-3.6,8-8v-20.5C379.4,359.3,367.5,344.4,351.3,339.6L351.3,339.6z"/>
				<ellipse class="st2" cx="332.1" cy="312.1" rx="33.7" ry="33.7"/>
			</g>
			<g>
				<path class="st3" d="M187.3,339.6c-5.5,3.8-12.1,6.1-19.3,6.1s-13.8-2.3-19.3-6.1c-16.2,4.8-28.1,19.7-28.1,37.5v20.5
					c0,4.4,3.6,8,8,8h78.7c4.4,0,8-3.6,8-8v-20.5C215.4,359.3,203.5,344.4,187.3,339.6z"/>
				<g>
					<ellipse class="st2" cx="168.1" cy="312.1" rx="33.7" ry="33.7"/>
					<g>
						<path class="st4" d="M367.5,232h-22.2c-2.2,0-4,1.8-4,4s1.8,4,4,4h22.2c2.2,0,4-1.8,4-4S369.7,232,367.5,232z"/>
						<path class="st4" d="M263,240h60.4c2.2,0,4-1.8,4-4s-1.8-4-4-4H267V43.2c103.2,2.1,186.7,85.6,188.8,188.8h-65.6
							c-2.2,0-4,1.8-4,4s1.8,4,4,4h69.7c2.2,0,4-1.8,4-4c0-110.7-90.1-200.8-200.8-200.8c-2.2,0-4,1.8-4,4V236
							C259,238.2,260.8,240,263,240L263,240z"/>
						<path class="st4" d="M237,35.1C126.3,35.1,36.1,125.2,36.1,236c0,2.2,1.8,4,4,4H237c2.2,0,4-1.8,4-4V39.1
							C241,36.9,239.2,35.1,237,35.1z M233,232H44.2C46.3,128.8,129.8,45.3,233,43.2V232L233,232z"/>
						<path class="st4" d="M237,256H40.1c-2.2,0-4,1.8-4,4c0,110.8,90.1,200.9,200.9,200.9c2.2,0,4-1.8,4-4V260
							C241,257.8,239.2,256,237,256L237,256z M233,452.8C129.8,450.7,46.3,367.2,44.2,264H233V452.8z"/>
						<path class="st4" d="M459.9,256H263c-2.2,0-4,1.8-4,4v196.9c0,2.2,1.8,4,4,4c110.7,0,200.8-90.1,200.8-200.9
							C463.9,257.8,462.1,256,459.9,256L459.9,256z M267,452.8V264h188.8C453.7,367.2,370.2,450.7,267,452.8L267,452.8z"/>
						<path class="st4" d="M383.4,205.6v-20.5c0-17.1-10-31.8-24.4-38.8c6.6-6.8,10.7-16.1,10.7-26.3c0-20.8-16.9-37.7-37.7-37.7
							s-37.7,16.9-37.7,37.7c0,10.2,4.1,19.5,10.7,26.3c-14.4,7-24.4,21.7-24.4,38.8v20.5c0,6.6,5.4,12,12,12h78.7
							C378,217.6,383.4,212.2,383.4,205.6L383.4,205.6z M332,90.4c16.4,0,29.7,13.3,29.7,29.7s-13.3,29.7-29.7,29.7
							s-29.7-13.3-29.7-29.7S315.6,90.4,332,90.4z M375.4,205.6c0,2.2-1.8,4-4,4h-78.7c-2.2,0-4-1.8-4-4v-20.5
							c0-15.3,9.8-28.3,23.5-33.1c5.8,3.6,12.6,5.7,19.8,5.7s14.1-2.1,19.8-5.7c13.7,4.8,23.5,17.8,23.5,33.1v20.5H375.4z"/>
						<path class="st4" d="M128.6,217.6h78.7c6.6,0,12-5.4,12-12v-20.5c0-17.1-10-31.8-24.4-38.8c6.6-6.8,10.7-16.1,10.7-26.3
							c0-20.8-16.9-37.7-37.7-37.7s-37.7,16.9-37.7,37.7c0,10.2,4.1,19.5,10.7,26.3c-14.4,7-24.4,21.7-24.4,38.8v20.5
							C116.6,212.2,122,217.6,128.6,217.6z M168,90.4c16.4,0,29.7,13.3,29.7,29.7s-13.3,29.7-29.7,29.7s-29.7-13.3-29.7-29.7
							S151.6,90.4,168,90.4z M124.6,185.1c0-15.3,9.8-28.3,23.5-33.1c5.8,3.6,12.6,5.7,19.8,5.7s14.1-2.1,19.8-5.7
							c13.7,4.8,23.5,17.8,23.5,33.1v20.5c0,2.2-1.8,4-4,4h-78.7c-2.2,0-4-1.8-4-4L124.6,185.1L124.6,185.1z"/>
						<path class="st4" d="M292.6,409.6h78.7c6.6,0,12-5.4,12-12v-20.5c0-17.1-10-31.8-24.4-38.8c6.6-6.8,10.7-16.1,10.7-26.3
							c0-20.8-16.9-37.7-37.7-37.7s-37.7,16.9-37.7,37.7c0,10.2,4.1,19.5,10.7,26.3c-14.4,7-24.4,21.7-24.4,38.8v20.5
							C280.6,404.2,286,409.6,292.6,409.6L292.6,409.6z M332,282.4c16.4,0,29.7,13.3,29.7,29.7s-13.3,29.7-29.7,29.7
							s-29.7-13.3-29.7-29.7S315.6,282.4,332,282.4z M288.6,377.1c0-15.3,9.8-28.3,23.5-33.1c5.8,3.6,12.6,5.7,19.8,5.7
							s14.1-2.1,19.8-5.7c13.7,4.8,23.5,17.8,23.5,33.1v20.5c0,2.2-1.8,4-4,4h-78.7c-2.2,0-4-1.8-4-4v-20.5H288.6z"/>
						<path class="st4" d="M128.6,409.6h78.7c6.6,0,12-5.4,12-12v-20.5c0-17.1-10-31.8-24.4-38.8c6.6-6.8,10.7-16.1,10.7-26.3
							c0-20.8-16.9-37.7-37.7-37.7s-37.7,16.9-37.7,37.7c0,10.2,4.1,19.5,10.7,26.3c-14.4,7-24.4,21.7-24.4,38.8v20.5
							C116.6,404.2,122,409.6,128.6,409.6z M168,282.4c16.4,0,29.7,13.3,29.7,29.7s-13.3,29.7-29.7,29.7s-29.7-13.3-29.7-29.7
							S151.6,282.4,168,282.4z M124.6,377.1c0-15.3,9.8-28.3,23.5-33.1c5.8,3.6,12.6,5.7,19.8,5.7s14.1-2.1,19.8-5.7
							c13.7,4.8,23.5,17.8,23.5,33.1v20.5c0,2.2-1.8,4-4,4h-78.7c-2.2,0-4-1.8-4-4L124.6,377.1L124.6,377.1z"/>
					</g>
				</g>
			</g>
		</g>
	</g>
</g>
</svg>
