<?xml version="1.0" encoding="utf-8"?>
<!-- Generator: Adobe Illustrator 24.0.1, SVG Export Plug-In . SVG Version: 6.00 Build 0)  -->
<svg version="1.1" id="Layer_1" xmlns="http://www.w3.org/2000/svg" xmlns:xlink="http://www.w3.org/1999/xlink" x="0px" y="0px"
	 viewBox="0 0 512 512" style="enable-background:new 0 0 512 512;" xml:space="preserve">
<style type="text/css">
	.st0{fill:#E6E7E8;}
	.st1{fill:#BF6689;}
	.st2{fill:#FFFFFF;}
	.st3{fill:#96043E;}
	.st4{fill:#5B1647;}
</style>
<g>
	<g>
		<path class="st0" d="M417.9,200.9V70.5c0-8.6-7-15.5-15.5-15.5h-59.2v-6.4c0-2.2-1.8-4-4-4s-4,1.8-4,4V55h-80.9v-6.4
			c0-2.2-1.8-4-4-4s-4,1.8-4,4V55h-80.9v-6.4c0-2.2-1.8-4-4-4s-4,1.8-4,4V55H98.2c-8.6,0-15.5,7-15.5,15.5v364.8
			c0,0.1,0,0.2,0.1,0.3c0,0.4,0.1,0.7,0.2,1c0,0.1,0.1,0.3,0.1,0.4c0.2,0.4,0.4,0.8,0.8,1.2l44.2,44.2c0.4,0.4,0.8,0.7,1.3,0.9
			s1,0.3,1.5,0.3h271.6c8.6,0,15.5-7,15.5-15.6V257.8l6.8-6.2c0,0,0.1,0,0.1-0.1l13.4-12.3c9.1-8.4,9.6-22.5,1.2-31.7
			C433.7,201.4,425.5,199.2,417.9,200.9L417.9,200.9z M161.4,89.7c2.2,0,4-1.8,4-4v-5.9c4.8,1.9,8.1,6.5,8.1,11.9
			c0,7-5.7,12.8-12.8,12.8S148,98.8,148,91.7c0-5.9,4-10.8,9.4-12.3v6.3C157.4,87.9,159.2,89.7,161.4,89.7z M250.3,89.7
			c2.2,0,4-1.8,4-4v-6.1c5.1,1.7,8.8,6.4,8.8,12.1c0,7-5.7,12.8-12.8,12.8s-12.8-5.7-12.8-12.8c0-5.6,3.7-10.4,8.8-12.1v6.1
			C246.3,87.9,248.1,89.7,250.3,89.7L250.3,89.7z M339.1,89.7c2.2,0,4-1.8,4-4v-6.3c5.4,1.5,9.4,6.4,9.4,12.3
			c0,7-5.7,12.8-12.8,12.8S327,98.8,327,91.7c0-5.4,3.4-10,8.1-11.9v5.9C335.1,87.9,336.9,89.7,339.1,89.7z"/>
	</g>
	<g>
		<g>
			<g>
				<path class="st1" d="M386.4,42.9H82.2c-6.4,0-11.5,5.2-11.5,11.5v364.8l44.2,44.2h271.6c6.4,0,11.5-5.2,11.5-11.6V54.5
					C397.9,48.1,392.7,42.9,386.4,42.9L386.4,42.9z M144.8,92.5c-9.3,0-16.8-7.5-16.8-16.8s7.5-16.8,16.8-16.8s16.8,7.5,16.8,16.8
					S154.1,92.5,144.8,92.5z M234.3,92.5c-9.3,0-16.8-7.5-16.8-16.8s7.5-16.8,16.8-16.8s16.8,7.5,16.8,16.8S243.6,92.5,234.3,92.5z
					 M323.8,92.5c-9.3,0-16.8-7.5-16.8-16.8s7.5-16.8,16.8-16.8s16.8,7.5,16.8,16.8S333,92.5,323.8,92.5z"/>
			</g>
			<g>
				<g>
					<path class="st2" d="M82.7,419.3V54.5c0-6.4,5.2-11.5,11.5-11.5h-12c-6.4,0-11.5,5.2-11.5,11.5v364.8H82.7z"/>
				</g>
			</g>
			<g>
				<g>
					<path class="st3" d="M70.7,419.3h32.6c6.4,0,11.5,5.2,11.5,11.6v32.6L70.7,419.3z"/>
				</g>
			</g>
		</g>
		<g>
			<path class="st3" d="M231.4,343.5l149.9-138.1l25,27.1L256.4,370.7L231.4,343.5z"/>
			<path class="st2" d="M420.5,194.3l-0.1-0.1c-6.9-7.5-18.5-7.9-25.9-1.1l-13.4,12.3l25,27.1l13.4-12.3
				C426.9,213.4,427.4,201.8,420.5,194.3L420.5,194.3z"/>
			<g>
				<path class="st2" d="M221.8,377.2l34.4-6.6l-25-27.1L221.8,377.2z"/>
			</g>
		</g>
		<g>
			<path class="st4" d="M70.7,248.3c2.2,0,4-1.8,4-4v-29.8c0-2.2-1.8-4-4-4s-4,1.8-4,4v29.8C66.7,246.5,68.5,248.3,70.7,248.3z"/>
			<path class="st4" d="M117.8,167.2h232.9c2.2,0,4-1.8,4-4s-1.8-4-4-4H117.8c-2.2,0-4,1.8-4,4S115.6,167.2,117.8,167.2z"/>
			<path class="st4" d="M117.2,385.9h83.5c2.2,0,4-1.8,4-4s-1.8-4-4-4h-83.5c-2.2,0-4,1.8-4,4S115,385.9,117.2,385.9z"/>
			<path class="st4" d="M423.3,191.5c-4-4.4-9.6-6.9-15.5-7.2c-2-0.1-4,0.2-5.9,0.6V54.5c0-8.6-7-15.5-15.5-15.5h-59.2v-6.4
				c0-2.2-1.8-4-4-4s-4,1.8-4,4V39h-80.9v-6.4c0-2.2-1.8-4-4-4s-4,1.8-4,4V39h-80.9v-6.4c0-2.2-1.8-4-4-4s-4,1.8-4,4V39H82.2
				c-8.6,0-15.5,7-15.5,15.5v144c0,2.2,1.8,4,4,4s4-1.8,4-4v-144c0-4.1,3.4-7.5,7.5-7.5h59.2v8.4C131.5,57,124,65.5,124,75.8
				c0,11.5,9.3,20.8,20.8,20.8s20.8-9.3,20.8-20.8c0-9.9-6.9-18.1-16.1-20.2V47h80.9v8.4c-9.5,1.9-16.8,10.3-16.8,20.4
				c0,11.5,9.3,20.8,20.8,20.8s20.8-9.3,20.8-20.8c0-10.1-7.2-18.5-16.8-20.4V47h80.9v8.6c-9.2,2.1-16.1,10.4-16.1,20.2
				c0,11.5,9.3,20.8,20.8,20.8s20.8-9.3,20.8-20.8c0-10.3-7.6-18.8-17.4-20.4V47h59.2c4.1,0,7.5,3.4,7.5,7.5v134.1
				c-0.7,0.5-1.5,1-2.2,1.6L346,232.3H117.2c-2.2,0-4,1.8-4,4s1.8,4,4,4h220.1l-70.7,65.1H117.2c-2.2,0-4,1.8-4,4s1.8,4,4,4h140.7
				l-29.6,27.2c-0.6,0.6-0.9,1.3-1.1,2l-9,32.4l-4.2,3.9c-1.6,1.5-1.7,4-0.2,5.7c0.8,0.9,1.9,1.3,2.9,1.3s1.9-0.3,2.7-1.1l4.2-3.9
				l33-6.3c0.8-0.1,1.5-0.4,2.1-0.9l0,0l0.1-0.1l65.2-60.1h25.9c2.2,0,4-1.8,4-4s-1.8-4-4-4h-17.3l61.1-56.3v202.7
				c0,4.2-3.4,7.6-7.5,7.6H118.8v-28.6c0-8.6-7-15.6-15.5-15.6H74.7V261.2c0-2.2-1.8-4-4-4s-4,1.8-4,4v158.1c0,1.1,0.4,2.1,1.2,2.8
				l44.2,44.2c0.8,0.8,1.8,1.2,2.8,1.2h271.6c8.6,0,15.5-7,15.5-15.6V241.8l20.3-18.6c4.4-4,6.9-9.6,7.2-15.5S427.5,196,423.3,191.5
				L423.3,191.5z M157.6,75.7c0,7-5.7,12.8-12.8,12.8S132,82.8,132,75.7c0-5.9,4-10.8,9.4-12.3v6.3c0,2.2,1.8,4,4,4s4-1.8,4-4v-5.9
				C154.2,65.7,157.6,70.3,157.6,75.7z M247.1,75.7c0,7-5.7,12.8-12.8,12.8s-12.8-5.7-12.8-12.8c0-5.6,3.7-10.4,8.8-12.1v6.1
				c0,2.2,1.8,4,4,4s4-1.8,4-4v-6.1C243.4,65.3,247.1,70.1,247.1,75.7z M336.6,75.7c0,7-5.7,12.8-12.8,12.8S311,82.8,311,75.7
				c0-5.4,3.4-10,8.1-11.9v5.9c0,2.2,1.8,4,4,4s4-1.8,4-4v-6.3C332.5,64.9,336.6,69.9,336.6,75.7z M110.8,430.9v22.9l-30.5-30.5h23
				C107.4,423.3,110.8,426.7,110.8,430.9z M256.4,365l-19.6-21.2l143.9-132.6l19.6,21.2L256.4,365z M233.1,351.5l15.2,16.6l-21,4
				L233.1,351.5z M416.7,217.3l-10.4,9.6l-19.6-21.2l10.4-9.6c2.8-2.6,6.4-3.9,10.3-3.8c3.8,0.2,7.4,1.8,10.1,4.7
				C422.9,202.8,422.6,211.9,416.7,217.3L416.7,217.3z"/>
		</g>
	</g>
</g>
</svg>
