<?xml version="1.0" encoding="utf-8"?>
<!-- Generator: Adobe Illustrator 23.0.3, SVG Export Plug-In . SVG Version: 6.00 Build 0)  -->
<svg version="1.1" id="Layer_1" xmlns="http://www.w3.org/2000/svg" xmlns:xlink="http://www.w3.org/1999/xlink" x="0px" y="0px"
	 viewBox="0 0 926 1000" style="enable-background:new 0 0 926 1000;" xml:space="preserve">
<style type="text/css">
	.st0{fill:#C90035;}
</style>
<path id="maple_leaf" class="st0" d="M463.1-0.4l-80.9,150.9c-9.2,16.4-25.6,14.9-42.1,5.7l-58.5-30.3l43.6,231.7
	c9.2,42.4-20.3,42.4-34.8,24L188.2,267.2l-16.6,58.1c-2.9,9.8-12.9,15.8-22.9,13.7L19.4,311.9l33.9,123.4
	c7.3,27.5,12.9,38.8-7.3,46.1L0,503l222.5,180.7c9.1,7.2,13.1,19.1,10.1,30.3l-19.5,63.9c76.6-8.8,145.2-22.1,221.9-30.3
	c6.8-0.7,18.1,10.4,18,18.3L442.9,1000h37.2l-5.8-233.6c0-7.8,10.2-19.5,17-18.8c76.6,8.2,145.3,21.5,221.9,30.3L693.6,714
	c-2.9-11.2,1-23.1,10.1-30.3L926.2,503l-46.1-21.7c-20.3-7.3-14.6-18.6-7.3-46.1l33.9-123.4l-129.2,27.2c-10.1,2.1-20-3.9-22.9-13.7
	L738,267.2L635.8,381.6c-14.5,18.3-44,18.3-34.8-24l43.6-231.7l-58.5,30.3c-16.5,9.2-32.9,10.7-42.1-5.7"/>
</svg>
