<?xml version="1.0" encoding="iso-8859-1"?>
<!DOCTYPE svg PUBLIC "-//W3C//DTD SVG 1.1//EN" "http://www.w3.org/Graphics/SVG/1.1/DTD/svg11.dtd">
<svg 
 version="1.1" xmlns="http://www.w3.org/2000/svg" xmlns:xlink="http://www.w3.org/1999/xlink" x="-79px" y="-79px" width="596px" height="596px" viewBox="-79 -79 670 670" style="enable-background:new 0 0 670 670;" xml:space="default">
<g id="afcae5a789ccd549f9c6e2a2f809001c">
<g></g>
<g fill="#383838">
    <path style="display: inline;" d="M349.993,142.216L100.45,391.756l-19.975-19.98l249.536-249.534l-18.938-18.937L35.104,379.273
    L2.045,511.5l132.231-33.059l275.973-275.969L349.993,142.216z M59.069,482.021l-27.27-27.268L47.5,391.942l74.38,74.38
    L59.069,482.021z M497.901,114.817l-29.214,29.221l-14.612,14.607l-29.219,29.219l-29.219-29.219l-43.826-43.829l-29.223-29.219
    l29.223-29.219l14.607-14.609l29.219-29.219c16.07-16.069,42.367-16.069,58.438,0l43.826,43.828
    C513.973,72.451,513.973,98.747,497.901,114.817z"></path>
</g>
</g>
</svg>