<?xml version="1.0" encoding="utf-8"?>
<!-- Generator: Adobe Illustrator 22.1.0, SVG Export Plug-In . SVG Version: 6.00 Build 0)  -->
<svg version="1.1" id="Layer_1" xmlns="http://www.w3.org/2000/svg" xmlns:xlink="http://www.w3.org/1999/xlink" x="0px" y="0px"
	 viewBox="0 0 49.3 49.3" style="enable-background:new 0 0 49.3 49.3;" xml:space="preserve">
<style type="text/css">
	.st0{fill:#A3A3A3;}
	.st1{clip-path:url(#SVGID_2_);fill:#A3A3A3;}
</style>
<path class="st0" d="M24.7,2c12.5,0,22.7,10.2,22.7,22.7S37.2,47.3,24.7,47.3S2,37.2,2,24.7S12.2,2,24.7,2 M24.7,0C11,0,0,11,0,24.7
	s11,24.7,24.7,24.7s24.7-11,24.7-24.7S38.3,0,24.7,0L24.7,0z"/>
<g>
	<defs>
		<circle id="SVGID_1_" cx="24.7" cy="24.7" r="24.7"/>
	</defs>
	<clipPath id="SVGID_2_">
		<use xlink:href="#SVGID_1_"  style="overflow:visible;"/>
	</clipPath>
	<path class="st1" d="M29.6,36.9c-0.1-1.6-0.1-2.7-0.1-4.2c0.7-0.4,2-2.8,2.3-4.9c0.6,0,1.5-0.6,1.7-2.8c0.1-1.2-0.4-1.9-0.8-2.1
		c0.9-2.8,2.9-11.5-3.6-12.4c-0.7-1.2-2.4-1.8-4.6-1.8c-8.9,0.2-9.9,6.7-8,14.2c-0.3,0.2-0.9,0.9-0.8,2.1c0.3,2.2,1.2,2.8,1.7,2.8
		c0.2,2.1,1.6,4.5,2.3,4.9c0,1.5,0.1,2.6-0.1,4.2C18,41.6,6.2,40.2,5.7,49.3h38C43.1,40.2,31.4,41.6,29.6,36.9z"/>
</g>
</svg>
