<?xml version="1.0" encoding="iso-8859-1"?>
<!-- Generator: Adobe Illustrator 19.1.0, SVG Export Plug-In . SVG Version: 6.00 Build 0)  -->
<svg xmlns="http://www.w3.org/2000/svg" xmlns:xlink="http://www.w3.org/1999/xlink" version="1.1" id="Capa_1" x="0px" y="0px" viewBox="0 0 43.244 43.244" style="enable-background:new 0 0 43.244 43.244;" xml:space="preserve" width="512px" height="512px">
<path d="M22.69,1.785l4.555,14.143l14.872-0.016c0.619,0,1.127,0.492,1.127,1.111  c0,0.365-0.19,0.698-0.46,0.905l0,0l-12.047,8.714l4.619,14.142c0.19,0.587-0.127,1.206-0.714,1.397  c-0.381,0.127-0.794,0.032-1.079-0.206L21.626,33.26L9.611,42.022c-0.508,0.365-1.206,0.254-1.555-0.238  c-0.222-0.302-0.27-0.683-0.159-1H7.881l4.635-14.142L0.469,17.927c-0.508-0.365-0.619-1.063-0.254-1.556  c0.238-0.333,0.603-0.492,0.984-0.46l14.793,0.016l4.571-14.143c0.19-0.587,0.809-0.905,1.397-0.73  C22.325,1.182,22.578,1.451,22.69,1.785L22.69,1.785z M25.372,17.387L21.626,5.753l-3.762,11.635l0,0  c-0.143,0.46-0.571,0.778-1.063,0.778L4.579,18.149l9.904,7.159l0,0c0.381,0.286,0.556,0.778,0.397,1.254l-3.793,11.619l9.857-7.19  c0.381-0.286,0.921-0.302,1.333-0.016l9.872,7.206l-3.778-11.571c-0.175-0.46-0.032-1,0.381-1.302l9.92-7.159l-12.19,0.016  C25.991,18.197,25.531,17.879,25.372,17.387L25.372,17.387z" fill="#999999"/>
<g>
</g>
<g>
</g>
<g>
</g>
<g>
</g>
<g>
</g>
<g>
</g>
<g>
</g>
<g>
</g>
<g>
</g>
<g>
</g>
<g>
</g>
<g>
</g>
<g>
</g>
<g>
</g>
<g>
</g>
</svg>
