<?xml version="1.0" standalone="no"?>
<!DOCTYPE svg PUBLIC "-//W3C//DTD SVG 20010904//EN"
 "http://www.w3.org/TR/2001/REC-SVG-20010904/DTD/svg10.dtd">
<svg version="1.0" xmlns="http://www.w3.org/2000/svg"
 width="500.000000pt" height="500.000000pt" viewBox="0 0 500.000000 500.000000"
 preserveAspectRatio="xMidYMid meet">
<metadata>
Created by potrace 1.11, written by Peter Selinger 2001-2013
</metadata>
<g transform="translate(0.000000,500.000000) scale(0.100000,-0.100000)"
fill="#000000" stroke="none">
<path d="M2148 4155 c-2 -1 -37 -5 -78 -9 -267 -21 -501 -133 -692 -329 -107
-109 -211 -278 -249 -405 -9 -33 -18 -44 -38 -47 -250 -49 -427 -175 -539
-385 -37 -69 -58 -127 -68 -190 -2 -14 -7 -36 -10 -50 -3 -14 -5 -56 -4 -95 1
-38 2 -77 2 -85 0 -8 5 -33 10 -55 6 -22 12 -51 14 -65 2 -14 25 -66 50 -117
70 -140 182 -250 325 -318 136 -64 200 -72 577 -71 224 1 332 -2 332 -9 0 -5
-7 -39 -15 -74 -9 -36 -18 -85 -21 -110 l-5 -46 183 0 c206 0 192 6 177 -80
-4 -22 -10 -60 -13 -85 -3 -25 -8 -54 -10 -66 -2 -12 -7 -45 -11 -74 -4 -29
-9 -62 -11 -74 -2 -12 -7 -39 -9 -61 -3 -22 -7 -51 -10 -65 -2 -14 -7 -45 -10
-70 -3 -25 -8 -52 -10 -60 -2 -8 -7 -40 -10 -70 -4 -30 -10 -75 -15 -100 l-8
-45 56 61 c59 63 116 124 267 288 50 54 101 111 115 126 14 15 63 69 110 120
47 51 99 107 115 124 17 18 68 74 115 126 47 51 117 127 155 167 l70 73 540 3
c536 2 540 2 604 25 137 49 259 156 327 285 55 105 73 182 70 302 -4 126 -8
142 -57 241 -89 181 -265 299 -473 317 -39 3 -40 5 -69 72 -66 156 -180 291
-322 382 -134 85 -298 131 -458 127 l-87 -2 -32 41 c-130 171 -336 315 -543
380 -90 27 -323 63 -337 52z m639 -1325 c9 0 10 -6 3 -22 -5 -13 -55 -151
-110 -308 -56 -157 -114 -320 -130 -363 l-29 -79 182 7 c100 4 186 9 191 12
27 17 -30 -50 -206 -239 -18 -19 -51 -55 -73 -79 -22 -24 -94 -103 -160 -174
-66 -72 -148 -161 -183 -199 l-62 -69 5 44 c3 24 7 55 10 69 3 14 8 45 11 70
3 25 11 86 19 135 8 50 17 110 20 135 3 25 8 52 11 61 4 15 -14 17 -176 17
-100 0 -183 2 -186 4 -2 3 9 70 25 149 16 79 31 158 34 174 3 17 8 41 11 55 3
14 8 36 10 50 3 14 9 50 15 80 6 30 12 66 15 80 2 14 7 36 10 50 3 14 8 36 10
50 4 21 27 141 40 205 12 65 20 84 34 87 11 2 545 1 659 -2z"/>
</g>
</svg>
