<?xml version="1.0" encoding="utf-8"?>
<!-- Generator: Adobe Illustrator 16.0.0, SVG Export Plug-In . SVG Version: 6.00 Build 0)  -->
<!DOCTYPE svg PUBLIC "-//W3C//DTD SVG 1.1//EN" "http://www.w3.org/Graphics/SVG/1.1/DTD/svg11.dtd">
<svg version="1.1" id="Layer_1" xmlns="http://www.w3.org/2000/svg" xmlns:xlink="http://www.w3.org/1999/xlink" x="0px" y="0px"
	 width="512px" height="512px" viewBox="0 0 512 512" enable-background="new 0 0 512 512" xml:space="preserve">
<path fill="#cccccc" d="M407.618,276.091c0.806-6.443,1.416-12.995,1.416-19.643c0-6.649-0.61-13.195-1.416-19.643l42.61-33.335
	c3.836-3.024,4.937-8.464,2.419-12.895l-40.288-69.799c-2.519-4.333-7.752-6.147-12.297-4.333l-50.155,20.243
	c-10.377-7.958-21.748-14.706-34.044-19.84l-7.554-53.386C307.405,58.728,303.274,55,298.238,55h-80.579
	c-5.036,0-9.167,3.728-9.974,8.459l-7.554,53.386c-12.286,5.134-23.667,11.784-34.043,19.84l-50.161-20.243
	c-4.529-1.711-9.767,0-12.285,4.333l-40.29,69.798c-2.518,4.333-1.412,9.773,2.415,12.896l42.508,33.335
	c-0.807,6.448-1.412,12.995-1.412,19.643c0,6.649,0.605,13.201,1.412,19.643l-42.508,33.336c-3.827,3.029-4.933,8.459-2.415,12.895
	l40.29,69.799c2.518,4.338,7.756,6.146,12.285,4.338l50.161-20.243c10.377,7.947,21.758,14.695,34.043,19.83l7.554,53.39
	c0.807,4.732,4.938,8.46,9.974,8.46h80.579c5.036,0,9.168-3.728,9.975-8.46l7.554-53.39c12.285-5.135,23.666-11.784,34.043-19.83
	l50.155,20.243c4.534,1.711,9.778,0,12.296-4.338l40.29-69.799c2.518-4.338,1.406-9.769-2.42-12.895L407.618,276.091z
	 M257.949,326.953c-38.981,0-70.507-31.525-70.507-70.506s31.525-70.506,70.507-70.506c38.98,0,70.507,31.525,70.507,70.506
	S296.93,326.953,257.949,326.953z"/>
</svg>
