<?xml version="1.0" encoding="utf-8"?>
<!-- Generator: Adobe Illustrator 16.0.0, SVG Export Plug-In . SVG Version: 6.00 Build 0)  -->
<!DOCTYPE svg PUBLIC "-//W3C//DTD SVG 1.1//EN" "http://www.w3.org/Graphics/SVG/1.1/DTD/svg11.dtd">
<svg version="1.1" id="Capa_1" xmlns="http://www.w3.org/2000/svg" xmlns:xlink="http://www.w3.org/1999/xlink" x="0px" y="0px"
	 width="64px" height="64px" viewBox="0 0 64 64" enable-background="new 0 0 64 64" xml:space="preserve">
<g>
	<path fill="#CCCCCC" d="M32,5.907c-14.083,0-25.5,11.68-25.5,26.095c0,14.413,11.417,26.089,25.5,26.089
		c14.09,0,25.5-11.681,25.5-26.089C57.5,17.59,46.09,5.907,32,5.907z M32,55.249c-12.542,0-22.711-10.401-22.711-23.241
		C9.289,19.166,19.458,8.767,32,8.767c12.546,0,22.715,10.402,22.715,23.241C54.708,44.839,44.544,55.249,32,55.249z M24.362,43.29
		h4.151v7.041h-4.151V43.29z M30.656,43.29h4.151v7.041h-4.151V43.29z M36.842,43.29h4.151v7.041h-4.151V43.29z M35.39,33.592
		c0,1.199-0.956,2.177-2.125,2.177c-1.128,0-2.055-0.901-2.123-2.04l-7.496-9.551l9.621,7.242
		C34.434,31.42,35.39,32.393,35.39,33.592z M19.917,37.213l1.841,1.887l-3.456,3.539l-1.843-1.89L19.917,37.213z M18.313,30.629
		h-4.887v-2.667h4.887V30.629z M19.363,16.101l3.456,3.539l-1.844,1.885l-3.456-3.54L19.363,16.101z M33.303,17.321h-2.605v-5.001
		h2.605V17.321z M43.9,22.534l-1.847-1.884l3.462-3.539l1.84,1.886L43.9,22.534z M51.328,27.962v2.667h-4.887v-2.667H51.328z
		 M44.791,37.747l3.46,3.537l-1.84,1.884l-3.461-3.535L44.791,37.747z"/>
</g>
</svg>
