<svg id="Layer_1" data-name="Layer 1" xmlns="http://www.w3.org/2000/svg" viewBox="0 0 5578.35 2964"><defs><style>.cls-1{fill:#fff;}</style></defs><title>ivon_veteran</title><path class="cls-1" d="M5189.12,1311h407.23L5155,2658H4726.6L4287.12,1311H4696.2l183.34,682.72q57.12,227.58,62.66,316.94,6.44-64.47,25.79-161.23t34.09-152Z" transform="translate(-18 -18)"/><path d="M1500,18,18,1500,1500,2982,2982,1500ZM1310.38,2155,887.67,1046.39h399.22L1474.76,1702c.64,3.27,2,8.8,3.91,16.63s3.92,17.12,5.87,27.89,3.75,22.18,5.39,34.24a255,255,0,0,1,2.44,33.76h6.85q0-50.87,17.61-110.57l196.68-657.53h398.24L1689,2155Z" transform="translate(-18 -18)"/></svg>