<?xml version="1.0" encoding="utf-8"?>
<!-- Generator: Adobe Illustrator 16.0.0, SVG Export Plug-In . SVG Version: 6.00 Build 0)  -->
<!DOCTYPE svg PUBLIC "-//W3C//DTD SVG 1.1//EN" "http://www.w3.org/Graphics/SVG/1.1/DTD/svg11.dtd">
<svg version="1.1" id="Capa_1" xmlns="http://www.w3.org/2000/svg" xmlns:xlink="http://www.w3.org/1999/xlink" x="0px" y="0px"
	 width="512px" height="512px" viewBox="0 0 512 512" enable-background="new 0 0 512 512" xml:space="preserve">
<g>
	<g>
		<polygon fill="#CCCCCC" points="94.468,309.43 94.468,338.396 137.501,364.809 161.982,409.771 212.664,409.771 256.561,435.113 
			300.458,409.771 351.134,409.771 375.617,364.809 418.649,338.396 418.649,309.43 387.777,309.43 387.777,321.521 353.404,342.59 
			334.258,378.896 292.619,378.896 256.561,399.722 220.5,378.896 178.857,378.896 159.715,342.59 125.342,321.521 125.342,309.43 
					"/>
		<polygon fill="#CCCCCC" points="418.649,185.931 418.649,149.245 375.617,122.833 351.134,77.869 300.458,77.869 256.561,52.528 
			212.664,77.869 161.982,77.869 137.501,122.833 94.468,149.245 94.468,185.931 125.342,185.931 125.342,166.119 159.715,145.054 
			178.857,108.745 220.5,108.745 256.561,87.919 292.619,108.745 334.258,108.745 353.404,145.054 387.777,166.119 387.777,185.931 
					"/>
		<polygon fill="#CCCCCC" points="325.357,124.183 288.489,124.183 256.561,105.749 224.626,124.183 187.762,124.183 
			171.02,156.353 140.78,175.024 140.78,185.931 372.338,185.931 372.338,175.024 342.097,156.353 		"/>
		<polygon fill="#CCCCCC" points="187.762,363.458 224.626,363.458 256.561,381.898 288.489,363.458 325.357,363.458 
			342.097,331.288 372.338,312.619 372.338,309.43 140.78,309.43 140.78,312.619 171.02,331.288 		"/>
		<polygon fill="#CCCCCC" points="94.468,301.713 125.342,301.713 133.061,301.713 140.78,301.713 372.338,301.713 380.059,301.713 
			387.777,301.713 418.649,301.713 488.118,301.713 463.743,244.639 488.118,193.65 418.649,193.65 387.777,193.65 380.059,193.65 
			372.338,193.65 140.78,193.65 133.061,193.65 125.342,193.65 94.468,193.65 25,193.65 49.377,248.698 25,301.713 		"/>
	</g>
</g>
</svg>
