<?xml version="1.0" encoding="utf-8"?>
<!-- Generator: Adobe Illustrator 16.0.0, SVG Export Plug-In . SVG Version: 6.00 Build 0)  -->
<!DOCTYPE svg PUBLIC "-//W3C//DTD SVG 1.1//EN" "http://www.w3.org/Graphics/SVG/1.1/DTD/svg11.dtd">
<svg version="1.1" id="Capa_1" xmlns="http://www.w3.org/2000/svg" xmlns:xlink="http://www.w3.org/1999/xlink" x="0px" y="0px"
	 width="512px" height="512px" viewBox="0 0 512 512" enable-background="new 0 0 512 512" xml:space="preserve">
<g transform="translate(60 60)">
	<path fill="#cccccc" d="M195.029,185.356c42.138,0,76.301-41.493,76.301-92.678C271.33,41.493,260.114,0,195.029,0
		c-65.086,0-76.304,41.493-76.304,92.678C118.725,143.863,152.888,185.356,195.029,185.356z"/>
	<path fill="#cccccc" d="M50.91,326.864C50.897,323.742,50.884,325.984,50.91,326.864L50.91,326.864z"/>
	<path fill="#cccccc" d="M339.141,329.301C339.182,328.446,339.154,323.373,339.141,329.301L339.141,329.301z"/>
	<path fill="#cccccc" d="M338.978,323.121c-1.412-89.165-13.058-114.571-102.169-130.654c0,0-12.544,15.984-41.781,15.984
		c-29.237,0-41.783-15.984-41.783-15.984C65.105,208.374,52.752,233.404,51.127,320.226c-0.133,7.089-0.194,7.461-0.218,6.639
		c0.005,1.542,0.012,4.394,0.012,9.367c0,0,21.216,42.769,144.106,42.769c122.89,0,144.107-42.769,144.107-42.769
		c0-3.195,0.002-5.418,0.005-6.929C339.116,329.812,339.067,328.825,338.978,323.121z"/>
</g>
</svg>
