<?xml version="1.0" encoding="utf-8"?>
<!-- Generator: Adobe Illustrator 16.0.0, SVG Export Plug-In . SVG Version: 6.00 Build 0)  -->
<!DOCTYPE svg PUBLIC "-//W3C//DTD SVG 1.1//EN" "http://www.w3.org/Graphics/SVG/1.1/DTD/svg11.dtd">
<svg version="1.1" id="Capa_1" xmlns="http://www.w3.org/2000/svg" xmlns:xlink="http://www.w3.org/1999/xlink" x="0px" y="0px"
	 width="64px" height="64px" viewBox="0 0 64 64" enable-background="new 0 0 64 64" xml:space="preserve">
<g>
	<circle fill="#CCCCCC" cx="14.486" cy="10.872" r="5.163"/>
	<path fill="#CCCCCC" d="M8.727,34.125h0.512v10.24c0,1.408,1.152,2.559,2.56,2.559h5.376c1.408,0,2.56-1.15,2.56-2.559v-0.598
		c-0.469-0.896-0.768-1.92-0.768-2.986V27.384c0-2.603,1.579-4.864,3.84-5.845v-1.024c0-1.408-1.152-2.56-2.56-2.56H8.727
		c-1.408,0-2.56,1.152-2.56,2.56v11.05C6.167,32.973,7.276,34.125,8.727,34.125z"/>
	<circle fill="#CCCCCC" cx="50.24" cy="10.872" r="5.163"/>
	<path fill="#CCCCCC" d="M41.877,20.472v1.024c2.262,0.981,3.842,3.243,3.842,5.846v13.354c0,1.066-0.258,2.092-0.768,2.986v0.598
		c0,1.408,1.15,2.561,2.559,2.561h5.377c1.408,0,2.559-1.152,2.559-2.561V34.04h0.512c1.41,0,2.561-1.152,2.561-2.56V20.472
		c0-1.408-1.15-2.56-2.561-2.56h-11.52C43.029,17.912,41.877,19.063,41.877,20.472z"/>
	<path fill="#CCCCCC" d="M22.849,27.383L22.849,27.383v4.182v9.216c0,1.408,1.152,2.559,2.56,2.559h0.981v12.076
		c0,1.406,1.152,2.559,2.56,2.559h6.87c1.408,0,2.56-1.152,2.56-2.559V43.297h0.981c1.408,0,2.561-1.15,2.561-2.559v-9.173v-4.181
		l0,0c0-1.408-1.152-2.56-2.561-2.56H25.409C23.958,24.823,22.849,25.976,22.849,27.383z"/>
	<circle fill="#CCCCCC" cx="32.363" cy="16.76" r="5.931"/>
</g>
</svg>
