<?xml version="1.0" encoding="utf-8"?>
<!-- Generator: Adobe Illustrator 19.1.0, SVG Export Plug-In . SVG Version: 6.00 Build 0)  -->
<svg version="1.1" id="Layer_1" xmlns="http://www.w3.org/2000/svg" xmlns:xlink="http://www.w3.org/1999/xlink" x="0px" y="0px"
	 viewBox="0 0 30 30" style="enable-background:new 0 0 30 30;" xml:space="preserve">
<g>
	<path d="M28.9,15.6c-0.1,0-0.3,0-0.4-0.1c-13.4-13.4-26.6-0.6-27.2,0c-0.2,0.2-0.5,0.2-0.7,0s-0.2-0.5,0-0.7
		c0.1-0.1,14.4-14.1,28.6,0c0.2,0.2,0.2,0.5,0,0.7C29.1,15.6,29,15.6,28.9,15.6z"/>
</g>
<g>
	<path d="M14.4,21.8c-4.2,0-9-1.6-13.7-6.3c-0.2-0.2-0.2-0.5,0-0.7c0.2-0.2,0.5-0.2,0.7,0c13.4,13.4,26.6,0.6,27.2,0
		c0.2-0.2,0.5-0.2,0.7,0s0.2,0.5,0,0.7C29.1,15.6,22.8,21.8,14.4,21.8z"/>
</g>
<path d="M15.3,12.8c1.4,0,2.5,1.1,2.5,2.5c0,1.4-1.1,2.5-2.5,2.5c-1.4,0-2.5-1.1-2.5-2.5C12.8,13.9,13.9,12.8,15.3,12.8 M15.3,9.8
	c-3,0-5.5,2.5-5.5,5.5s2.5,5.5,5.5,5.5c3,0,5.5-2.5,5.5-5.5S18.3,9.8,15.3,9.8L15.3,9.8z"/>
</svg>
