<?xml version="1.0" encoding="UTF-8" standalone="no"?>
<!-- Generator: Adobe Illustrator 19.1.0, SVG Export Plug-In . SVG Version: 6.00 Build 0)  -->

<svg
   xmlns:dc="http://purl.org/dc/elements/1.1/"
   xmlns:cc="http://creativecommons.org/ns#"
   xmlns:rdf="http://www.w3.org/1999/02/22-rdf-syntax-ns#"
   xmlns:svg="http://www.w3.org/2000/svg"
   xmlns="http://www.w3.org/2000/svg"
   xmlns:sodipodi="http://sodipodi.sourceforge.net/DTD/sodipodi-0.dtd"
   xmlns:inkscape="http://www.inkscape.org/namespaces/inkscape"
   version="1.1"
   id="Layer_1"
   x="0px"
   y="0px"
   viewBox="0 0 30 30"
   style="enable-background:new 0 0 30 30;"
   xml:space="preserve"
   sodipodi:docname="watch_list_off.svg"
   inkscape:version="0.92.2 (5c3e80d, 2017-08-06)"><metadata
     id="metadata17"><rdf:RDF><cc:Work
         rdf:about=""><dc:format>image/svg+xml</dc:format><dc:type
           rdf:resource="http://purl.org/dc/dcmitype/StillImage" /></cc:Work></rdf:RDF></metadata><defs
     id="defs15" /><sodipodi:namedview
     pagecolor="#ffffff"
     bordercolor="#666666"
     borderopacity="1"
     objecttolerance="10"
     gridtolerance="10"
     guidetolerance="10"
     inkscape:pageopacity="0"
     inkscape:pageshadow="2"
     inkscape:window-width="1920"
     inkscape:window-height="1013"
     id="namedview13"
     showgrid="false"
     inkscape:zoom="22.250293"
     inkscape:cx="15.07675"
     inkscape:cy="11.390764"
     inkscape:window-x="-9"
     inkscape:window-y="29"
     inkscape:window-maximized="1"
     inkscape:current-layer="Layer_1" /><g
     id="g4"
     style="fill:#cccccc;fill-opacity:0.80000001"><path
       d="M28.9,15.6c-0.1,0-0.3,0-0.4-0.1c-13.4-13.4-26.6-0.6-27.2,0c-0.2,0.2-0.5,0.2-0.7,0s-0.2-0.5,0-0.7   c0.1-0.1,14.4-14.1,28.6,0c0.2,0.2,0.2,0.5,0,0.7C29.1,15.6,29,15.6,28.9,15.6z"
       id="path2"
       style="fill:#cccccc;fill-opacity:0.80000001" /></g><g
     id="g8"
     style="fill:#cccccc;fill-opacity:0.80000001"><path
       d="M14.4,21.8c-4.2,0-9-1.6-13.7-6.3c-0.2-0.2-0.2-0.5,0-0.7c0.2-0.2,0.5-0.2,0.7,0c13.4,13.4,26.6,0.6,27.2,0   c0.2-0.2,0.5-0.2,0.7,0s0.2,0.5,0,0.7C29.1,15.6,22.8,21.8,14.4,21.8z"
       id="path6"
       style="fill:#cccccc;fill-opacity:0.80000001" /></g><path
     d="M15.3,12.8c1.4,0,2.5,1.1,2.5,2.5c0,1.4-1.1,2.5-2.5,2.5c-1.4,0-2.5-1.1-2.5-2.5C12.8,13.9,13.9,12.8,15.3,12.8 M15.3,9.8  c-3,0-5.5,2.5-5.5,5.5s2.5,5.5,5.5,5.5c3,0,5.5-2.5,5.5-5.5S18.3,9.8,15.3,9.8L15.3,9.8z"
     id="path10"
     style="fill:#cccccc;fill-opacity:0.80000001" /></svg>