<?xml version="1.0" encoding="utf-8"?>
<!-- Generator: Adobe Illustrator 23.0.2, SVG Export Plug-In . SVG Version: 6.00 Build 0)  -->
<svg version="1.1" id="Layer_1" xmlns="http://www.w3.org/2000/svg" xmlns:xlink="http://www.w3.org/1999/xlink" x="0px" y="0px"
	 viewBox="0 0 1000 821" style="enable-background:new 0 0 1000 821;" xml:space="preserve">
<style type="text/css">
	.st0{fill:#0A6CBC;}
	.st1{fill:#FFFFFF;}
</style>
<g>
	<rect class="st0" width="1000" height="632"/>
</g>
<polyline class="st0" points="199,627 199,816 462,627 "/>
<g>
	<path class="st1" d="M254.2,145.7h205.7v61.8h-132V283h112.8v61.8H327.8v126.7h-73.7V145.7H254.2z"/>
	<path class="st1" d="M516.2,145.7h117.4c69.1,0,125.8,24,125.8,101.5c0,74.9-56.7,107.1-125.8,107.1h-43.7v117.3h-73.7V145.7z
		 M627.5,295.8c38.8,0,59.6-16.6,59.6-48.6c0-32.2-20.8-43-59.6-43h-37.7v91.6H627.5z M620.1,334.9l51-47.1l104,183.8h-82.4
		L620.1,334.9z"/>
</g>
</svg>
